<?xml version="1.0" encoding="UTF-8" standalone="no"?>
<!-- Created with Inkscape (http://www.inkscape.org/) -->

<svg
   width="210mm"
   height="297mm"
   viewBox="0 0 210 297"
   version="1.1"
   id="svg3125"
   sodipodi:docname="math-sketch.svg"
   inkscape:version="1.1.2 (08b2f3d93c, 2022-04-05)"
   xmlns:inkscape="http://www.inkscape.org/namespaces/inkscape"
   xmlns:sodipodi="http://sodipodi.sourceforge.net/DTD/sodipodi-0.dtd"
   xmlns="http://www.w3.org/2000/svg"
   xmlns:svg="http://www.w3.org/2000/svg">
  <sodipodi:namedview
     id="namedview3127"
     pagecolor="#ffffff"
     bordercolor="#666666"
     borderopacity="1.0"
     inkscape:pageshadow="2"
     inkscape:pageopacity="0.0"
     inkscape:pagecheckerboard="0"
     inkscape:document-units="mm"
     showgrid="false"
     inkscape:zoom="0.50900944"
     inkscape:cx="150.29191"
     inkscape:cy="397.83152"
     inkscape:window-width="1848"
     inkscape:window-height="1016"
     inkscape:window-x="72"
     inkscape:window-y="27"
     inkscape:window-maximized="1"
     inkscape:current-layer="layer1"
     showguides="true"
     inkscape:guide-bbox="true" />
  <defs
     id="defs3122" />
  <g
     inkscape:label="Layer 1"
     inkscape:groupmode="layer"
     id="layer1">
    <path
       style="fill:none;stroke:#000000;stroke-width:3;stroke-linecap:butt;stroke-linejoin:miter;stroke-miterlimit:4;stroke-dasharray:none;stroke-opacity:1"
       d="m 13.027278,52.574851 19.373657,10e-7 H 182.62351 l 14.35174,-10e-7 c 0,0 -0.67299,39.437443 -8.58024,57.406239 -5.83371,13.25689 -18.5725,22.63094 -24.66965,35.76874 -6.7061,14.44996 -16.93934,20.63615 -22.78056,35.45683 -5.52288,14.01298 -8.99687,24.09113 -14.96979,35.43876 -4.96774,9.43795 -13.90807,16.82041 -17.24873,26.94925 -4.97337,15.0792 -3.22808,47.52505 -3.22808,47.52505 0,0 -0.0844,-34.32855 -5.696184,-50.21042 C 94.912924,227.0727 83.344428,219.89934 76.180588,203.75797 70.19669,190.27522 67.067668,179.69962 61.398518,168.17461 55.11051,155.39151 46.175511,148.26594 40.14203,131.09791 35.213455,117.07386 21.325486,107.45955 16.083704,93.549515 11.21205,80.621686 13.027278,52.574851 13.027278,52.574851 Z"
       id="path3219" />
    <path
       style="fill:#000000;fill-opacity:1;stroke:none;stroke-width:7.5064;stroke-linecap:round;paint-order:stroke fill markers"
       id="path3928"
       d="m 59.009647,43.954039 c 0.987016,-1.3949 0.746734,-2.872711 0.501377,-4.246971 -0.33419,-1.429 -1.053631,-2.758756 -1.826005,-4.059673 -0.333161,-0.5841 -0.795735,-1.107028 -1.307094,-1.611218 0,0 5.044373,-0.238009 5.044373,-0.238009 v 0 c 0.513051,0.525448 0.972646,1.068748 1.281919,1.681486 0.728585,1.335849 1.410306,2.697276 1.742309,4.144092 0.224065,1.438611 0.459925,2.967813 -0.386825,4.443203 0,0 -5.050054,-0.11291 -5.050054,-0.11291 z" />
    <path
       style="fill:#000000;fill-opacity:1;stroke:none;stroke-width:9.19041;stroke-linecap:round;paint-order:stroke fill markers"
       id="path3930"
       d="m 160.35866,50.575937 c -5.26149,-2.604099 -10.11113,-5.903045 -14.8579,-9.333626 -6.45005,-4.655986 -11.61358,-10.785034 -15.2074,-17.876256 -0.61334,-1.210227 -1.11424,-2.474232 -1.67136,-3.711347 -1.584,-4.648274 -0.90755,-2.375127 -2.06394,-6.809055 0,0 -4.07498,2.216812 -4.07498,2.216812 v 0 c 1.29216,4.416419 0.56041,2.145127 2.22404,6.804541 0.58179,1.238146 1.10754,2.504207 1.74536,3.714438 3.71422,7.047379 8.9019,13.282809 15.30085,18.035885 4.62952,3.46773 9.28558,6.802858 14.26817,9.748557 0,0 4.33716,-2.789949 4.33716,-2.789949 z" />
    <path
       style="fill:#000000;fill-opacity:1;stroke:none;stroke-width:9.19041;stroke-linecap:round;paint-order:stroke fill markers"
       id="path3930-7"
       d="m 154.21974,45.983694 c -5.26149,-2.604099 -10.11113,-5.903045 -14.8579,-9.333626 -6.45005,-4.655986 -11.61358,-10.785034 -15.2074,-17.876256 -0.61334,-1.210227 -1.11424,-2.474232 -1.67136,-3.711347 -1.584,-4.648274 -0.90755,-2.375127 -2.06394,-6.809055 0,0 -4.07498,2.216812 -4.07498,2.216812 v 0 c 1.29216,4.416419 0.56041,2.145127 2.22404,6.804541 0.58179,1.238146 1.10754,2.504207 1.74536,3.714438 3.71422,7.047379 8.9019,13.282809 15.30085,18.035885 4.62952,3.46773 9.28558,6.802858 14.26817,9.748557 0,0 4.33716,-2.789949 4.33716,-2.789949 z" />
    <path
       style="fill:#000000;fill-opacity:1;stroke:none;stroke-width:9.19041;stroke-linecap:round;paint-order:stroke fill markers"
       id="path3932"
       d="m 131.13589,54.215567 c 2.87727,-2.711413 5.789,-5.522311 7.61855,-9.076764 0.27368,-0.531711 0.48767,-1.092093 0.7315,-1.638141 0.84098,-2.093231 0.88743,-4.061405 0.64404,-6.257831 0,0 -3.7277,3.324911 -3.7277,3.324911 v 0 c 0.21294,2.169689 0.10416,3.959244 -0.76083,6.008544 -0.78425,1.649477 -1.63183,3.166403 -2.76492,4.609167 -0.31304,0.398599 -1.36512,1.495837 -0.99434,1.150294 0.79513,-0.74102 4.00041,-4.011187 2.27629,-2.334644 0,0 -3.02259,4.214464 -3.02259,4.214464 z" />
    <text
       xml:space="preserve"
       style="font-size:26.3969px;line-height:1.25;font-family:sans-serif;stroke-width:2.19974"
       x="99.162506"
       y="72.199715"
       id="text7907"><tspan
         sodipodi:role="line"
         id="tspan7905"
         style="stroke-width:2.19974"
         x="99.162506"
         y="72.199715">А</tspan></text>
    <path
       style="fill:#000000;fill-opacity:1;stroke:none;stroke-width:7;stroke-linecap:round;stroke-opacity:1;paint-order:stroke fill markers"
       id="path1799"
       d="m 141.18068,35.956237 c -0.46832,-1.440122 -0.74113,-2.928615 -0.93172,-4.427675 -0.32838,-2.082207 0.009,-4.092975 0.58462,-6.092657 0.70758,-2.208771 1.8114,-4.256494 3.11814,-6.162972 0.88448,-1.294769 2.02528,-2.359493 3.22503,-3.353451 0,0 -3.58585,1.4514 -3.58585,1.4514 v 0 c -1.17849,1.027579 -2.29808,2.12423 -3.15872,3.441153 -1.2737,1.948169 -2.35057,4.029028 -3.04052,6.259785 -0.57065,2.054442 -0.90231,4.119623 -0.55774,6.251244 0.19334,1.537663 0.4908,3.056228 0.88966,4.554421 0,0 3.4571,-1.921248 3.4571,-1.921248 z" />
    <path
       style="fill:#000000;fill-opacity:1;stroke:#000000;stroke-width:2;stroke-linecap:round;stroke-miterlimit:4;stroke-dasharray:none;stroke-opacity:1;paint-order:stroke fill markers"
       id="path1815"
       d="m 168.79743,34.672477 c -0.82378,-0.380544 -1.45947,-1.021966 -2.12196,-1.621694 -1.43886,-1.201523 -2.91727,-2.351207 -4.33771,-3.57522 -1.67558,-1.513654 -3.32575,-3.055622 -4.97474,-4.59823 -1.22362,-1.183651 -2.5329,-2.258997 -3.91232,-3.254108 -0.98145,-0.7053 -1.94939,-1.447271 -3.04851,-1.960213 -0.84719,-0.333696 -1.74997,-0.448388 -2.65176,-0.506798 -0.53675,-0.04461 -1.07389,0.0035 -1.61079,2.91e-4 -0.20142,-0.0062 -0.40268,-0.01635 -0.60407,-0.02379 0,0 -3.2223,2.325766 -3.2223,2.325766 v 0 c 0.20148,0.0052 0.403,0.01066 0.60402,0.02622 0.54516,0.02461 1.08607,-0.05875 1.63178,-0.0258 0.87431,0.02665 1.75317,0.09575 2.58864,0.375628 1.10569,0.452031 2.06587,1.191917 3.04213,1.868284 1.37906,0.973847 2.68519,2.030222 3.89718,3.208528 1.69042,1.509617 3.36196,3.039203 5.03118,4.57214 1.3865,1.24111 2.82551,2.416279 4.23895,3.625678 0.66959,0.627957 1.31076,1.293665 2.13395,1.726084 0,0 3.31633,-2.162781 3.31633,-2.162781 z" />
    <path
       style="fill:#000000;fill-opacity:1;stroke:none;stroke-width:9.68253;stroke-linecap:round;stroke-opacity:1;paint-order:stroke fill markers"
       id="path2010"
       d="m 24.928647,29.366461 c 1.544463,-1.25274 3.304084,-2.140747 5.048237,-3.010606 1.501316,-0.771525 3.11002,-1.242473 4.705325,-1.718437 0.245797,-0.06703 0.490761,-0.137897 0.737394,-0.201121 0.556112,-0.142539 2.25771,-0.369127 1.689495,-0.309972 -8.127964,0.846412 -3.552788,0.405343 -1.703322,0.393134 2.712421,0.05242 5.41266,0.32119 8.124964,0.376703 4.980026,-0.08207 9.935514,-0.883719 14.729829,-2.352153 1.526379,-0.656324 3.893558,-1.001706 4.964868,-2.499778 0.113672,-0.51065 0.105493,-0.253431 0.02291,-0.771709 0,0 -5.265432,0.640403 -5.265432,0.640403 v 0 c 0.07333,0.113238 0.05818,0.04483 -0.02725,0.209773 -1.29565,1.244181 -3.202131,1.548553 -4.765394,2.185217 -1.63864,0.48051 -3.274863,0.903578 -4.947945,1.217112 -0.573355,0.107446 -2.305962,0.296021 -1.724983,0.287923 1.13013,-0.01575 2.256653,-0.173998 3.380849,-0.310988 0.459696,-0.05602 -0.923672,0.04523 -1.385506,0.06784 -2.708585,-0.02151 -5.403012,-0.279165 -8.107925,-0.388471 -3.656799,-0.02811 -7.375304,0.151541 -10.920112,1.216726 -1.591945,0.497075 -3.191459,0.995515 -4.676481,1.812518 -1.772805,0.920188 -3.542183,1.870691 -5.145421,3.115108 0,0 5.265872,0.04076 5.265872,0.04076 z" />
    <path
       style="fill:#000000;fill-opacity:1;stroke:none;stroke-width:9.68253;stroke-linecap:round;stroke-opacity:1;paint-order:stroke fill markers"
       id="path2010-3"
       d="m 27.101291,27.185851 c 1.544461,-1.252741 3.304084,-2.140748 5.048236,-3.010607 1.501317,-0.771524 3.11002,-1.242473 4.705322,-1.718436 0.2458,-0.06703 0.490763,-0.137897 0.737397,-0.201121 0.556112,-0.142539 2.257711,-0.369128 1.689494,-0.309972 -8.127962,0.84641 -3.552788,0.405343 -1.70332,0.393135 2.712421,0.05242 5.412659,0.321189 8.124963,0.376701 4.980028,-0.08207 9.935514,-0.883719 14.729829,-2.352153 1.526379,-0.656323 3.893559,-1.001703 4.96487,-2.499775 0.113672,-0.510651 0.105503,-0.253432 0.02291,-0.771712 0,0 -5.265434,0.640405 -5.265434,0.640405 v 0 c 0.07333,0.113239 0.05818,0.04483 -0.02726,0.209772 -1.295649,1.244182 -3.202129,1.548553 -4.765392,2.185217 -1.638641,0.480511 -3.274864,0.903578 -4.947946,1.217115 -0.573354,0.107446 -2.305962,0.296021 -1.72498,0.287923 1.130127,-0.01575 2.256651,-0.173997 3.380847,-0.310988 0.459696,-0.05601 -0.923671,0.04523 -1.385508,0.06784 -2.708583,-0.02151 -5.403009,-0.279165 -8.107923,-0.38847 -3.656799,-0.02811 -7.375304,0.151541 -10.920112,1.216727 -1.591944,0.497072 -3.191458,0.995515 -4.676482,1.812516 -1.772804,0.920189 -3.542179,1.870693 -5.145418,3.115111 0,0 5.265871,0.04076 5.265871,0.04076 z" />
    <path
       style="fill:#000000;fill-opacity:1;stroke:none;stroke-width:9.68253;stroke-linecap:round;stroke-opacity:1;paint-order:stroke fill markers"
       id="path2010-6"
       d="m 28.566757,24.784309 c 1.54446,-1.252741 3.304083,-2.140748 5.048235,-3.010607 1.501315,-0.771524 3.11002,-1.242473 4.705321,-1.718435 0.245799,-0.06703 0.490765,-0.137897 0.737396,-0.201121 0.556113,-0.142539 2.257711,-0.369127 1.689497,-0.309972 -8.127964,0.84641 -3.55279,0.405345 -1.703323,0.393137 2.712422,0.05242 5.412658,0.321189 8.124966,0.376701 4.980025,-0.08208 9.935513,-0.883721 14.729827,-2.352153 1.526378,-0.656321 3.893558,-1.001703 4.964869,-2.499775 0.113673,-0.510651 0.105503,-0.253432 0.02291,-0.771711 0,0 -5.265434,0.640402 -5.265434,0.640402 v 0 c 0.07335,0.113243 0.05818,0.04483 -0.02725,0.209775 -1.295649,1.244181 -3.202129,1.548553 -4.765392,2.185218 -1.638642,0.480508 -3.274864,0.903578 -4.947946,1.21711 -0.573355,0.107446 -2.305961,0.296021 -1.724982,0.287923 1.13013,-0.01575 2.256652,-0.173997 3.380849,-0.310988 0.459697,-0.05601 -0.923673,0.04523 -1.385508,0.06784 -2.70858,-0.02151 -5.403008,-0.279155 -8.10792,-0.388467 -3.656799,-0.02811 -7.375305,0.151538 -10.920111,1.216724 -1.591946,0.497073 -3.19146,0.995517 -4.676483,1.812517 -1.772804,0.920189 -3.542181,1.870692 -5.145418,3.115108 0,0 5.265869,0.04077 5.265869,0.04077 z" />
    <path
       style="fill:#000000;fill-opacity:1;stroke:#000000;stroke-width:2;stroke-linecap:round;stroke-miterlimit:4;stroke-dasharray:none;stroke-opacity:1;paint-order:stroke fill markers"
       id="path2760"
       d="m 49.044406,127.23322 c 1.269543,-0.79228 2.470867,-1.68658 3.715625,-2.51678 2.190243,-1.39254 4.769664,-2.05685 7.313425,-2.45555 0.410361,-0.0643 -0.80524,0.20421 -1.207855,0.30631 3.080022,-0.52873 6.194862,-0.73917 9.315026,-0.79111 1.699007,0.0162 3.395113,0.009 5.090978,-0.0991 1.192664,-0.10054 2.384701,-0.20855 3.566742,-0.39882 0.726284,-1.53627 3.340568,-0.21785 4.682858,-1.09413 0.97059,-0.63361 2.000077,-2.1947 2.72003,-3.10322 0.925131,-1.12409 1.820408,-2.27219 2.719549,-3.41702 0,0 -3.743555,0.42328 -3.743555,0.42328 v 0 c -0.894641,1.15108 -1.795499,2.29721 -2.733907,3.41325 -0.731064,0.89545 -1.437908,1.8855 -2.355798,2.60643 -1.060506,0.83297 -4.200847,1.02833 2.387933,-0.18289 -1.190568,0.21421 -2.390779,0.33794 -3.594978,0.4504 -1.709357,0.12725 -3.420076,0.16164 -5.134091,0.13608 -3.190487,0.0487 -6.374154,0.28211 -9.525127,0.80541 -1.933492,0.36641 -3.869478,0.71991 -5.800481,1.09922 -2.618519,0.51437 -5.292346,1.08062 -7.530642,2.6117 -1.266199,0.85091 -2.500635,1.75679 -3.835314,2.49966 0,0 3.949583,-0.2931 3.949583,-0.2931 z" />
    <path
       style="fill:#000000;fill-opacity:1;stroke:#000000;stroke-width:2;stroke-linecap:round;stroke-miterlimit:4;stroke-dasharray:none;stroke-opacity:1;paint-order:stroke fill markers"
       id="path2760-3"
       d="m 144.27899,143.63947 c -0.95033,-1.15599 -1.80345,-2.3869 -2.71819,-3.57092 -1.63133,-2.01869 -3.86389,-3.47141 -6.14741,-4.66104 -0.36838,-0.19191 0.69797,0.4505 1.04695,0.67575 -2.75025,-1.48399 -5.63507,-2.67744 -8.57552,-3.72237 -1.61533,-0.52687 -3.2206,-1.07453 -4.79316,-1.71857 -1.09824,-0.47584 -2.19348,-0.95861 -3.25298,-1.51619 -0.19805,-1.68773 -3.09638,-1.27252 -4.08885,-2.53133 -0.71764,-0.91022 -1.19512,-2.71822 -1.5875,-3.80899 -0.51804,-1.36054 -1.00012,-2.73432 -1.48691,-4.10622 0,0 3.41274,1.5958 3.41274,1.5958 v 0 c 0.48053,1.37639 0.96853,2.75008 1.50172,4.10723 0.40708,1.08193 0.76102,2.24578 1.40085,3.22194 0.73924,1.12785 3.65304,2.31515 -2.20472,-0.93535 1.05996,0.58294 2.15793,1.08322 3.26328,1.57409 1.57936,0.66612 3.18967,1.24461 4.82222,1.76737 3.00811,1.06436 5.95083,2.30153 8.77007,3.80297 1.71547,0.96427 3.43742,1.9171 5.14641,2.89281 2.31746,1.3231 4.67078,2.71302 6.30344,4.87834 0.92845,1.21049 1.80926,2.46293 2.83709,3.59289 0,0 -3.64953,-1.53821 -3.64953,-1.53821 z" />
    <path
       style="fill:#000000;fill-opacity:1;stroke:none;stroke-width:2;stroke-linecap:round;stroke-miterlimit:4;stroke-dasharray:none;stroke-opacity:1;paint-order:stroke fill markers"
       id="path3031"
       d="m 86.899547,51.083043 c -2.009044,-1.118344 -3.595229,-2.883125 -5.188963,-4.512503 -1.123254,-1.172253 -2.230631,-2.359473 -3.351496,-3.534011 -0.630004,-0.664871 -1.299477,-1.288865 -1.877689,-2.000451 -0.961747,-1.15956 -1.957562,-2.290014 -2.903665,-3.462581 -1.678979,-2.252228 -1.444953,-4.309218 -0.987885,-6.932752 0.501748,-2.518162 1.441267,-4.907232 2.393135,-7.280656 0.694455,-1.644014 1.068517,-3.379966 1.34134,-5.134889 0.03258,-0.196752 0.06517,-0.393504 0.09775,-0.590256 0,0 -3.504203,1.718073 -3.504203,1.718073 v 0 c -0.0282,0.195059 -0.0564,0.390119 -0.08459,0.585178 -0.255402,1.723007 -0.633542,3.419978 -1.322057,5.029279 -0.929465,2.387288 -1.810298,4.799222 -2.297803,7.323292 -0.44187,2.716154 -0.657116,4.919482 1.059233,7.256245 0.924618,1.18568 1.918615,2.314924 2.841725,3.502078 0.5782,0.729702 1.248717,1.371333 1.909136,2.026015 1.154639,1.155851 2.302751,2.31821 3.46188,3.469587 1.642104,1.639197 3.224577,3.386407 5.12732,4.728393 0,0 3.286834,-2.190041 3.286834,-2.190041 z" />
    <path
       style="fill:#000000;fill-opacity:1;stroke:none;stroke-width:2;stroke-linecap:round;stroke-miterlimit:4;stroke-dasharray:none;stroke-opacity:1;paint-order:stroke fill markers"
       id="path3313"
       d="m 45.225627,41.845933 c 0.769451,-1.260536 1.809894,-2.240917 3.096664,-2.948903 -5.328295,2.817723 -2.479845,1.493033 -1.165888,1.056193 0.831027,-0.276286 1.668687,-0.532913 2.504403,-0.794504 1.470142,-0.468106 2.917069,-1.011272 4.324835,-1.642713 1.968953,-0.988505 3.919212,-2.03934 5.668074,-3.382796 0,0 -3.655722,1.455941 -3.655722,1.455941 v 0 c -0.255397,0.190897 -0.387217,0.295058 -0.655256,0.472136 -0.11497,0.07595 -0.470048,0.287634 -0.350221,0.219602 5.559327,-3.156345 3.263596,-1.862588 2.043385,-1.189914 -1.39981,0.668999 -2.853082,1.22164 -4.325903,1.707878 -2.920183,0.91331 -5.391131,1.578665 -8.006384,3.492291 -1.264872,0.807759 -2.277827,1.872138 -3.087629,3.138318 0,0 3.609642,-1.583529 3.609642,-1.583529 z" />
    <path
       style="fill:#000000;fill-opacity:1;stroke:none;stroke-width:2;stroke-linecap:round;stroke-miterlimit:4;stroke-dasharray:none;stroke-opacity:1;paint-order:stroke fill markers"
       id="path3329"
       d="m 97.560665,292.70723 c -5.66401,3.21363 -3.076892,1.65838 -1.699981,1.19547 0.716937,-0.24103 1.447184,-0.40157 2.187278,-0.55013 1.404024,-0.24813 2.833288,-0.27489 4.254218,-0.3353 1.40558,-0.0828 2.81264,0.0158 4.20637,0.19673 1.12487,0.19132 2.26849,0.27669 3.3764,0.55642 0.8918,0.26735 1.5863,0.8852 2.27237,1.48468 0,0 3.32985,-2.07191 3.32985,-2.07191 v 0 c -0.72635,-0.6323 -1.44471,-1.30331 -2.36889,-1.63403 -1.12251,-0.32196 -2.28862,-0.38113 -3.43714,-0.57354 -1.404,-0.20998 -2.82684,-0.32327 -4.24696,-0.25436 -1.43179,0.0614 -2.87073,0.0796 -4.29055,0.29138 -2.759928,0.50407 -4.875926,1.39849 -7.266134,3.1328 0,0 3.683169,-1.43821 3.683169,-1.43821 z" />
    <path
       style="fill:#000000;fill-opacity:1;stroke:none;stroke-width:2;stroke-linecap:round;stroke-miterlimit:4;stroke-dasharray:none;stroke-opacity:1;paint-order:stroke fill markers"
       id="path3454"
       d="m 54.134337,37.602334 c 1.441238,1.092018 2.763861,2.333919 3.97333,3.676261 0.384289,0.40332 0.6193,0.705181 0.361773,1.218242 0,0 3.569316,-1.695378 3.569316,-1.695378 v 0 c 0.09394,-0.654735 -0.119308,-1.089671 -0.615693,-1.538888 -1.264603,-1.308809 -2.598391,-2.547766 -3.965596,-3.748712 0,0 -3.32313,2.088475 -3.32313,2.088475 z" />
    <path
       style="fill:#800080;stroke-width:1.25594;stroke-linecap:round;paint-order:stroke fill markers"
       d="m 77.48527,12.193906 c 0.07199,-0.211088 0.320449,-0.467706 0.552157,-0.570268 0.231735,-0.102561 1.928319,-0.267668 3.770217,-0.366917 1.856869,-0.100028 4.1741,-0.328083 5.201128,-0.511855 1.026412,-0.183671 2.134849,-0.272688 3.197879,-0.438952 0.810402,-0.126749 2.517604,-0.04495 2.42365,-0.4257404 C 92.556884,9.5826137 92.988443,9.5968166 85.496065,9.6454301 83.097185,9.66099 82.650104,9.6190824 81.945527,9.3125767 80.61975,8.7358568 80.270618,7.8591909 81.168033,7.3602572 81.326037,7.2724113 83.321841,7.1008058 85.603184,6.9789206 89.788727,6.7553012 93.096829,6.3966687 93.489406,6.1239705 93.956987,5.799158 93.164819,5.541866 91.384452,5.4402793 88.808647,5.2933102 85.207726,4.7583717 84.932494,3.9635365 c -0.08562,-0.2472658 -0.118169,-0.576323 0.120779,-0.7756806 0.359595,-0.2999831 0.739223,-0.3887332 2.202192,-0.5148216 0.972248,-0.083794 2.295252,-0.098601 2.939994,-0.032901 1.996101,0.2033984 3.84029,0.2437272 5.619466,-0.1113382 1.241032,-0.2476576 4.086136,-0.046723 6.118515,0.1291008 1.29469,0.1120174 2.61273,0.2034125 3.85393,0.5884144 1.35148,0.419193 2.50818,0.6449961 3.82235,1.8465429 0.75331,0.6887744 0.91143,0.9525501 1.33357,2.2247097 0.34617,1.0433562 0.53789,2.0625528 0.69185,3.6781581 0.18619,1.953976 0.32781,2.510975 -0.0746,3.664533 -0.68992,1.977298 -2.09676,3.969745 -3.80742,4.997462 -1.71066,1.027717 -3.55228,1.218767 -5.61644,0.919304 -0.64559,-0.09361 -1.69899,-0.18995 -2.340865,-0.213998 -0.641859,-0.02403 -1.659938,-0.15971 -2.262345,-0.301553 -0.996333,-0.234524 -1.23654,-0.385415 -2.657986,-1.669714 -1.214192,-1.097031 -1.503516,-1.438298 -1.297349,-1.530312 0.558554,-0.249271 2.653524,0.12835 4.348374,0.783782 0.943389,0.364829 1.743987,0.631343 1.779133,0.592252 0.303398,-0.337639 -1.762811,-1.336028 -3.943983,-1.905735 -0.909633,-0.237585 -4.861526,0.332297 -8.298585,0.959996 -3.528984,0.644477 -5.787067,1.072499 -6.50359,0.09098 -0.933143,-1.278224 0.724599,-1.595811 1.260454,-1.807295 1.086605,-0.421754 2.413059,-0.609073 3.629859,-0.868198 1.038191,-0.221089 2.589626,-0.42445 3.130092,-0.585354 0.540478,-0.160888 1.531841,-0.324547 2.20303,-0.363661 1.043206,-0.06079 1.203666,-0.108438 1.10559,-0.328194 -0.06314,-0.14136 -0.116396,-0.288289 -0.118464,-0.326441 -0.0095,-0.176278 -2.671353,0.37483 -4.015038,0.482087 -2.614776,0.208749 -5.249254,0.534253 -7.863026,0.31335 -0.750233,-0.06341 -1.617362,-0.0028 -2.209849,-0.467455 -0.360477,-0.282619 -0.778997,-0.703469 -0.596817,-1.2377 z"
       id="path3757" />
    <path
       style="fill:#960096;fill-opacity:1;stroke-width:1.25594;stroke-linecap:round;paint-order:stroke fill markers"
       d="m 105.78737,3.2463084 c 1.35148,0.419193 2.81661,0.8512054 3.82235,1.8465429 1.26997,1.2568695 2.05281,3.0459039 2.38168,4.8021361 0.29354,1.5676576 0.14674,3.2786596 -0.43094,4.7652646 -0.75852,1.952007 -2.09677,3.969744 -3.80742,4.997463 -1.71066,1.027717 -3.55228,1.218766 -5.61644,0.919304 10.21235,0.711385 11.30207,-13.911227 3.65077,-17.3307106 z"
       id="path3757-6" />
    <path
       style="fill:#ffffff;fill-opacity:1;stroke:none;stroke-width:0.0471198px;stroke-linecap:butt;stroke-linejoin:miter;stroke-opacity:1"
       d="m 106.91965,9.5845505 c 0.22795,-0.2023101 0.55038,-0.2729314 0.84621,-0.346335 0.32962,-0.081779 0.6761,-0.1344123 1.01398,-0.099733 0.43713,0.044783 0.87575,0.1765702 1.25859,0.3922905 0.28608,0.1611952 0.57109,0.3697853 0.73793,0.652629 0.143,0.242339 0.2045,0.543247 0.18361,0.823868 -0.0289,0.388628 -0.2018,0.768445 -0.42064,1.090934 -0.22568,0.332614 -0.54815,0.599825 -0.8852,0.818859 -0.22707,0.147532 -0.48343,0.256041 -0.74636,0.320816 -0.23409,0.0577 -0.48247,0.09042 -0.72108,0.05579 -0.2984,-0.04323 -0.59628,-0.152413 -0.84497,-0.322908 -0.19776,-0.135594 -0.38885,-0.31312 -0.48172,-0.534166 -0.1141,-0.271579 -0.0798,-0.770695 -0.10431,-1.157231 -0.0124,-0.589705 -0.26503,-1.3021693 0.16389,-1.6948127 z"
       id="path11446" />
    <path
       style="fill:#ffffff;fill-opacity:1;stroke:none;stroke-width:0.0394877px;stroke-linecap:butt;stroke-linejoin:miter;stroke-opacity:1"
       d="m 106.04028,12.997064 c 0,0 -0.21218,-0.789146 -0.25793,-1.188864 -0.0393,-0.344122 -0.0204,-0.690306 -0.014,-1.036058 0.0188,-0.9812336 -0.094,-1.1874516 -0.64104,-1.4771429 -0.21737,-0.1151062 -0.4993,-0.1384849 -0.76277,-0.1443762 -1.00546,-0.00777 -1.57513,0.4226533 -2.09829,0.9294371 -0.27996,0.272862 -0.4917,0.58469 -0.62986,0.906392 -0.17785,0.413964 -0.29126,0.854755 -0.2425,1.285013 0.0174,0.154153 0.0424,0.329171 0.18935,0.443921 0.18835,0.147065 0.75038,0.367483 1.15324,0.469891 0.4845,0.123158 0.9913,0.159896 1.49167,0.166636 0.33736,0.0045 0.67829,-0.01691 1.00846,-0.08521 0.27691,-0.05728 0.80339,-0.269643 0.80339,-0.269643 z"
       id="path13186" />
    <path
       id="path10504-9"
       style="stroke-width:1.63424;stroke-linecap:round;paint-order:stroke fill markers"
       d="m 107.55435,11.584617 a 0.82893711,1.014532 0 0 0 0.82893,1.014532 0.82893711,1.014532 0 0 0 0.82894,-1.014532 0.82893711,1.014532 0 0 0 -0.82894,-1.014531 0.82893711,1.014532 0 0 0 -0.82893,1.014531 z" />
    <path
       id="path10504-9-3"
       style="stroke-width:1.79496;stroke-linecap:round;paint-order:stroke fill markers"
       d="m 102.59483,11.734652 a 0.91045973,1.1143071 0 0 0 0.91047,1.114308 0.91045973,1.1143071 0 0 0 0.91047,-1.114308 0.91045973,1.1143071 0 0 0 -0.91047,-1.114307 0.91045973,1.1143071 0 0 0 -0.91047,1.114307 z" />
    <path
       style="fill:#4d004d;fill-opacity:1;stroke:#4d004d;stroke-width:0.249131;stroke-linecap:round;stroke-miterlimit:4;stroke-dasharray:none;stroke-opacity:1;paint-order:stroke fill markers"
       id="path7317"
       d="m 106.94165,17.622055 c -0.53362,0.05305 -1.06473,0.01643 -1.59391,-0.05751 -0.36125,-0.05055 -0.69048,-0.187958 -1.00771,-0.360468 0,0 -0.4788,-0.38674 -0.4788,-0.38674 v 0 c 0.31389,0.181504 0.63955,0.329676 1.00228,0.384634 0.51856,0.0778 1.03931,0.120266 1.56242,0.05478 0,0 0.51572,0.365301 0.51572,0.365301 z" />
    <path
       style="fill:#4d004d;fill-opacity:1;stroke:#4d004d;stroke-width:0.249131;stroke-linecap:round;stroke-miterlimit:4;stroke-dasharray:none;stroke-opacity:1;paint-order:stroke fill markers"
       id="path10729"
       d="m 108.03318,13.88372 c 0.0535,0.596681 -0.21739,1.100783 -0.55788,1.566686 -0.41707,0.442991 -0.91301,0.597415 -1.49897,0.379451 -0.12684,-0.04721 -0.24295,-0.119708 -0.36439,-0.179561 -0.24665,-0.15836 -0.4933,-0.316709 -0.73995,-0.475057 0,0 0.43717,0.172723 0.43717,0.172723 v 0 c -0.0216,0.0026 -0.043,0.0054 -0.0648,0.0079 0.11876,0.06198 0.23203,0.135982 0.35636,0.185901 0.56923,0.228492 1.04889,0.09802 1.46398,-0.334557 0.33741,-0.457182 0.60364,-0.954772 0.52725,-1.542495 0,0 0.44114,0.218874 0.44114,0.218874 z" />
    <path
       style="fill:#4d004d;stroke:#4d004d;stroke-width:0.366805;stroke-linecap:round;stroke-miterlimit:4;stroke-dasharray:none;paint-order:stroke fill markers"
       id="path13024"
       d="m 110.74247,8.98697 c -0.0163,-0.00917 -0.0326,-0.018202 -0.049,-0.027576 -0.1472,-0.085245 -0.29461,-0.1703587 -0.44149,-0.2562383 -0.0807,-0.047179 0.16477,0.088821 0.2429,0.1401327 0.0494,0.032472 -0.10384,-0.056597 -0.1566,-0.083442 -0.17541,-0.089355 -0.20086,-0.09707 -0.3886,-0.179406 -0.0794,-0.027851 -0.15748,-0.060053 -0.23832,-0.083534 -0.38896,-0.112975 -0.81457,-0.1595494 -1.21875,-0.1583668 -0.11783,2.775e-4 -0.23538,0.00869 -0.35306,0.013057 -0.4133,0.025964 -0.81885,0.1076557 -1.22002,0.2059065 0,0 -0.3096,-0.2143882 -0.3096,-0.2143882 v 0 c 0.41019,-0.088838 0.82333,-0.1655037 1.24242,-0.1982205 0.11658,-0.00614 0.23313,-0.016205 0.34992,-0.018423 0.23358,-0.00443 0.39932,0.00633 0.62959,0.034174 0.17528,0.021168 0.40915,0.058382 0.5811,0.1041365 0.0799,0.021263 0.15704,0.051747 0.23557,0.077625 0.17875,0.075143 0.35972,0.1497764 0.52941,0.2444228 0.15483,0.086404 0.30718,0.177463 0.46133,0.2651954 0.0925,0.052649 -0.18428,-0.1065412 -0.27635,-0.1599237 -0.014,-0.00824 0.0288,0.016462 0.0431,0.024685 0,0 0.3363,0.2701816 0.3363,0.2701816 z" />
    <path
       style="fill:#4d004d;stroke:#4d004d;stroke-width:0.366805;stroke-linecap:round;stroke-miterlimit:4;stroke-dasharray:none;paint-order:stroke fill markers"
       id="path13026"
       d="m 105.08811,8.5387078 c -0.014,-0.00897 -0.0544,-0.034835 -0.0404,-0.026859 0.0984,0.055739 0.19692,0.1111548 0.29331,0.1702058 0.0329,0.020146 -0.0678,-0.036977 -0.10259,-0.053407 -0.0445,-0.020923 -0.0897,-0.040299 -0.13524,-0.058571 -0.15675,-0.062827 -0.16205,-0.05942 -0.33218,-0.1084003 -0.43029,-0.1064137 -0.87408,-0.1140771 -1.31424,-0.093736 -0.44135,0.025426 -0.87325,0.1162549 -1.29792,0.2344113 -0.0588,0.018602 -0.11752,0.037213 -0.17632,0.055815 0,0 -0.32492,-0.2214872 -0.32492,-0.2214872 v 0 c 0.06,-0.018168 0.12,-0.036354 0.18008,-0.054522 0.42719,-0.1204814 0.86383,-0.2038793 1.30684,-0.238727 0.43957,-0.023198 0.88247,-0.016054 1.31445,0.078578 0.0592,0.015249 0.11907,0.028143 0.17769,0.045735 0.30713,0.092254 0.58686,0.2528488 0.85353,0.42847 0,0 -0.40203,-0.1575196 -0.40203,-0.1575196 z" />
  </g>
</svg>
