<?xml version="1.0" encoding="UTF-8" standalone="no"?>
<!-- Created with Inkscape (http://www.inkscape.org/) -->

<svg
   width="210mm"
   height="297mm"
   viewBox="0 0 210 297"
   version="1.1"
   id="svg3125"
   sodipodi:docname="math-sketch.svg"
   inkscape:version="1.1.2 (08b2f3d93c, 2022-04-05)"
   xmlns:inkscape="http://www.inkscape.org/namespaces/inkscape"
   xmlns:sodipodi="http://sodipodi.sourceforge.net/DTD/sodipodi-0.dtd"
   xmlns="http://www.w3.org/2000/svg"
   xmlns:svg="http://www.w3.org/2000/svg">
  <sodipodi:namedview
     id="namedview3127"
     pagecolor="#ffffff"
     bordercolor="#666666"
     borderopacity="1.0"
     inkscape:pageshadow="2"
     inkscape:pageopacity="0.0"
     inkscape:pagecheckerboard="0"
     inkscape:document-units="mm"
     showgrid="false"
     inkscape:zoom="0.43434848"
     inkscape:cx="74.824713"
     inkscape:cy="376.42586"
     inkscape:window-width="1848"
     inkscape:window-height="1016"
     inkscape:window-x="72"
     inkscape:window-y="27"
     inkscape:window-maximized="1"
     inkscape:current-layer="layer1" />
  <defs
     id="defs3122" />
  <g
     inkscape:label="Layer 1"
     inkscape:groupmode="layer"
     id="layer1">
    <path
       style="fill:none;stroke:#000000;stroke-width:3;stroke-linecap:butt;stroke-linejoin:miter;stroke-miterlimit:4;stroke-dasharray:none;stroke-opacity:1"
       d="M 9.8521436,52.574852 H 201.55348 c 0,0 -5.25122,39.437442 -13.15847,57.406238 -5.83371,13.25689 -18.5725,22.63094 -24.66965,35.76874 -6.7061,14.44996 -6.68679,31.29876 -12.52801,46.11944 -5.52288,14.01298 -16.03411,25.77419 -21.09109,39.96195 -4.64945,13.04442 -2.05703,28.32204 -8.21964,40.72349 -3.67336,7.39218 -16.38842,18.56501 -16.38842,18.56501 0,0 -15.500017,-9.59612 -20.683467,-16.81216 C 74.51194,259.96473 73.436685,240.82052 66.272845,224.67915 60.288947,211.1964 50.168096,199.50985 45.92227,185.38313 40.684463,167.95587 46.175511,148.26594 40.14203,131.09791 35.213455,117.07386 21.325486,107.45955 16.083704,93.549515 11.21205,80.621686 9.8521436,52.574852 9.8521436,52.574852 Z"
       id="path3219" />
    <path
       style="fill:#000000;fill-opacity:1;stroke:none;stroke-width:9.19041;stroke-linecap:round;paint-order:stroke fill markers"
       id="path3926"
       d="m 12.43096,51.217085 c 0.223489,-0.193504 0.433062,-0.404349 0.670455,-0.580509 0.951472,-0.706054 4.161995,-2.664212 2.895152,-1.781154 -0.732017,0.510255 -1.670521,0.744473 -2.289409,1.387275 -0.51308,0.532904 1.307551,-0.692314 1.958558,-1.043641 0.652742,-0.352266 1.301747,-0.711407 1.952625,-1.067109 3.863159,-2.366487 5.634801,-2.953975 8.349858,-5.699719 2.282867,-2.308678 4.291045,-5.047665 5.842279,-7.897235 0.514141,-0.944457 0.926858,-1.940691 1.390284,-2.911036 1.081441,-2.757815 1.952413,-5.60294 2.206235,-8.568271 0.07531,-0.879788 0.04255,-1.765494 0.06383,-2.64824 0,0 -4.253743,2.15389 -4.253743,2.15389 v 0 c -0.02275,0.862381 0.0067,1.727722 -0.06826,2.587143 -0.253734,2.909637 -1.096432,5.706955 -2.190862,8.402091 -0.465596,0.95342 -0.880731,1.933185 -1.396791,2.860264 -1.029379,1.849218 -2.381853,3.777327 -3.74355,5.395079 -0.702508,0.834604 -1.437299,1.64518 -2.224005,2.400939 -0.695732,0.668363 -1.996051,0.923582 -2.214769,1.863217 -0.168753,0.724965 1.338877,-0.650845 2.008316,-0.976267 -3.327342,1.829698 -6.646024,3.631834 -9.950816,5.514107 -1.016861,0.579162 -2.1217894,1.199355 -3.0274303,1.961834 -0.2618375,0.220444 -0.4711772,0.496603 -0.7067652,0.744905 0,0 4.7288025,-2.097563 4.7288015,-2.097563 z" />
    <path
       style="fill:#000000;fill-opacity:1;stroke:none;stroke-width:9.19041;stroke-linecap:round;paint-order:stroke fill markers"
       id="path3928"
       d="m 35.907516,50.610163 c -1.637916,-1.421472 -2.235915,-3.582117 -2.772635,-5.602526 -0.488186,-2.141135 -0.581227,-4.341518 -0.611644,-6.529075 -0.02571,-0.97525 0.09658,-1.932016 0.272291,-2.887773 0,0 -4.591631,2.239833 -4.591631,2.239833 v 0 c -0.165549,0.985939 -0.274031,1.969288 -0.211489,2.971878 0.0883,2.213443 0.232075,4.438305 0.731961,6.602901 0.590847,2.098325 1.220937,4.327611 2.778951,5.931506 0,0 4.404196,-2.726744 4.404196,-2.726744 z" />
    <path
       style="fill:#000000;fill-opacity:1;stroke:none;stroke-width:9.19041;stroke-linecap:round;paint-order:stroke fill markers"
       id="path3930"
       d="m 201.63392,50.575937 c -5.26149,-2.604099 -10.11113,-5.903045 -14.8579,-9.333626 -6.45005,-4.655986 -11.61358,-10.785034 -15.2074,-17.876256 -0.61334,-1.210227 -1.11424,-2.474232 -1.67136,-3.711347 -1.584,-4.648274 -0.90755,-2.375127 -2.06394,-6.809055 0,0 -4.07498,2.216812 -4.07498,2.216812 v 0 c 1.29216,4.416419 0.56041,2.145127 2.22404,6.804541 0.58179,1.238146 1.10754,2.504207 1.74536,3.714438 3.71422,7.047379 8.9019,13.282809 15.30085,18.035885 4.62952,3.46773 9.28558,6.802858 14.26817,9.748557 0,0 4.33716,-2.789949 4.33716,-2.789949 z" />
    <path
       style="fill:#000000;fill-opacity:1;stroke:none;stroke-width:9.19041;stroke-linecap:round;paint-order:stroke fill markers"
       id="path3932"
       d="m 170.28196,53.739863 c 3.50378,-1.831387 7.06766,-3.749219 9.79102,-6.675769 0.40739,-0.437783 0.76507,-0.919325 1.1476,-1.37899 1.37618,-1.787457 1.95363,-3.669588 2.31385,-5.849901 0,0 -4.48852,2.191793 -4.48852,2.191793 v 0 c -0.3823,2.146331 -0.97141,3.839639 -2.3588,5.578309 -1.20145,1.375624 -2.42799,2.606503 -3.9093,3.688709 -0.40925,0.298986 -1.71905,1.070492 -1.26858,0.83821 0.96602,-0.498137 4.93681,-2.778635 2.82325,-1.631355 0,0 -4.05052,3.238994 -4.05052,3.238994 z" />
    <path
       style="fill:#000000;fill-opacity:1;stroke:none;stroke-width:9.19041;stroke-linecap:round;paint-order:stroke fill markers"
       id="path3934"
       d="M 89.856946,11.945634 C 88.276857,9.0849808 86.131202,7.3189498 83.118313,5.9888316 82.07999,5.5304395 80.98638,5.2092141 79.920414,4.8194069 76.768928,4.3211733 75.833804,3.9317029 72.600557,4.4124698 c -4.63215,0.6887761 -9.476875,3.7923656 -12.761491,6.8511132 -0.687976,0.640666 -0.859386,1.672276 -1.289076,2.508414 -0.112032,0.948471 -0.430234,1.895007 -0.336071,2.845417 0.213552,2.155412 1.837747,6.146786 2.676637,7.988562 1.898094,4.16724 4.330124,8.045729 6.748033,11.92086 2.528519,3.96129 5.423143,7.655148 8.574016,11.133783 1.06898,1.124351 2.093508,2.298865 3.24011,3.34639 0.559966,0.458195 1.098139,0.895464 1.353877,1.586939 0.106697,0.406117 0.24393,0.752546 0.552841,1.039916 0.311147,0.18858 0.604017,0.212385 0.935471,0.02067 2.892602,-1.67313 3.975847,-2.016046 5.783892,-3.780215 1.53426,-1.466724 3.171979,-2.80733 4.693444,-4.289269 1.964002,-1.951936 3.887839,-3.94363 5.856787,-5.890598 0,0 -4.603734,1.904759 -4.603734,1.904759 v 0 c -1.971513,1.961909 -3.911659,3.955222 -5.899906,5.900311 -1.557885,1.482601 -3.227363,2.834798 -4.784522,4.317993 -0.176825,0.15766 -0.349268,0.32037 -0.530473,0.472976 -0.158187,0.133226 -0.669316,0.482188 -0.487231,0.384121 6.695891,-3.606353 4.843328,-2.990251 3.447802,-1.835611 -0.285309,-0.10453 -0.303328,-0.544779 -0.427431,-0.777707 -0.319389,-0.75796 -0.851353,-1.286947 -1.504965,-1.778513 -1.177622,-1.01066 -2.261201,-2.123999 -3.360735,-3.217606 -3.270134,-3.357044 -6.337925,-6.907539 -8.967767,-10.797268 -2.499893,-3.806495 -4.941537,-7.616112 -6.754987,-11.8141 -0.938729,-2.173087 -2.168764,-5.465651 -2.293545,-7.929078 -0.046,-0.908236 0.276612,-1.797647 0.414916,-2.696466 0.434131,-0.783602 1.504041,-1.477971 1.302397,-2.35081 -0.135445,-0.5862863 -2.192157,0.695001 -1.787893,0.2493047 0.763762,-0.8420345 1.956768,-1.1769748 3.01228,-1.5991716 3.477246,-1.3908721 7.049107,-1.5230377 10.677128,-0.7195659 1.036615,0.3820226 2.104184,0.6887402 3.109849,1.14607 2.846296,1.2943516 4.915771,3.1107998 6.163522,5.9694918 0,0 4.503214,-2.577944 4.503214,-2.577944 z" />
    <path
       style="fill:#000000;fill-opacity:1;stroke:none;stroke-width:9.19041;stroke-linecap:round;paint-order:stroke fill markers"
       id="path3936"
       d="M 96.994073,50.799066 C 96.812367,50.579772 96.612277,50.374491 96.448955,50.141191 94.321524,47.10233 92.786253,43.09061 91.293553,39.699562 89.55734,35.400007 87.334817,31.322797 85.516032,27.061596 85.240119,26.148945 84.369844,24.73899 85.181358,23.809543 85.36771,23.596111 86.14648,23.2171 85.915819,23.381647 c -1.088045,0.776181 -2.462377,1.230203 -3.308925,2.264443 -0.303955,0.371346 0.959679,0.013 1.439515,0.01946 2.674824,0.300771 5.312528,0.915569 8.014653,0.963254 2.407204,0.04248 3.372117,-0.13539 5.820078,-0.386017 2.64222,-0.34152 5.26992,-0.781794 7.89936,-1.207669 0.19918,-0.03227 2.79809,-0.468109 3.2141,-0.484102 0.32491,-0.01247 0.64702,0.06559 0.97051,0.09838 0.18661,0.133014 0.42427,0.214289 0.55984,0.39904 0.89899,1.224971 -0.86671,5.108084 -1.34955,6.301121 -1.34156,2.84728 -2.34258,5.806753 -2.84449,8.912788 -0.21729,2.490688 0.30305,4.898295 1.2653,7.180685 0.8255,1.583353 1.77545,3.155533 3.11431,4.358146 0.36572,0.310352 0.77823,0.436584 1.23313,0.538508 0,0 4.23345,-2.987803 4.23345,-2.987803 v 0 c -0.40177,-0.01657 -0.75661,-0.0423 -1.1035,-0.278213 -1.36806,-1.055169 -2.28559,-2.588092 -3.08165,-4.095002 -0.91832,-2.199903 -1.41763,-4.521818 -1.16372,-6.917469 0.49807,-3.05928 1.52292,-5.964841 2.81735,-8.778572 0.65532,-1.649299 2.4337,-5.251654 1.19224,-6.956294 -0.18723,-0.257092 -0.49564,-0.398665 -0.74348,-0.598 -0.36984,-0.05529 -0.73569,-0.1749 -1.10953,-0.165861 -0.35731,0.0087 -3.23177,0.551705 -3.35213,0.573399 -2.65575,0.478602 -5.31379,0.94947 -7.98818,1.313817 -2.435215,0.247078 -3.270421,0.410682 -5.655403,0.366197 -2.666757,-0.04975 -5.272154,-0.627571 -7.892734,-1.053553 -3.332155,-0.37765 -1.599965,-0.448938 -6.899407,2.52672 -0.269296,0.151208 -0.475398,0.420896 -0.606267,0.700645 -0.543709,1.162246 0.238962,2.443466 0.624136,3.494626 1.932973,4.202436 4.23974,8.227734 5.964691,12.528379 1.660421,3.877487 3.181543,7.87456 5.392066,11.47771 0,0 4.422491,-2.691335 4.422491,-2.691335 z" />
    <path
       style="fill:#000000;fill-opacity:1;stroke:none;stroke-width:9.19041;stroke-linecap:round;paint-order:stroke fill markers"
       id="path3938"
       d="m 79.150196,40.541651 c 2.232836,-1.074265 4.354589,-2.384166 6.639376,-3.351275 0.584431,-0.247381 1.186315,-0.451322 1.779469,-0.676979 3.919839,-1.24385 8.018133,-1.511642 12.100921,-1.545344 4.454268,0.05941 8.895918,0.434003 13.343298,0.659908 3.75343,0.1509 7.47916,0.662109 11.22731,0.878166 4.15279,-0.04136 8.01159,-2.343982 10.86277,-5.273317 1.04317,-1.256235 2.00749,-2.585293 2.88318,-3.964125 0.30428,-0.556323 0.75711,-1.002363 1.12514,-1.511427 0,0 -4.77918,2.057789 -4.77918,2.057789 v 0 c -0.38386,0.486261 -0.73664,0.993982 -1.05669,1.524952 -0.8608,1.331268 -1.75668,2.652388 -2.8351,3.818961 -1.22263,1.144306 -4.81925,3.692846 1.56559,-0.421942 0.33581,-0.216413 -0.73122,0.32676 -1.11282,0.444925 -1.06732,0.330486 -1.4866,0.308326 -2.60454,0.411155 -3.80078,-0.130385 -7.57905,-0.624543 -11.38038,-0.764359 -4.43076,-0.236798 -8.85243,-0.645462 -13.29002,-0.732399 -4.107621,0.0058 -8.216527,0.259927 -12.18915,1.398909 -0.59748,0.212318 -1.204356,0.399852 -1.792442,0.636959 -2.220638,0.895322 -4.260755,2.175463 -6.433565,3.172044 0,0 -4.053167,3.237399 -4.053167,3.237399 z" />
    <path
       style="fill:#000000;fill-opacity:1;stroke:none;stroke-width:9.19041;stroke-linecap:round;paint-order:stroke fill markers"
       id="path3944"
       d="m 125.79722,12.057951 c 0.14847,3.610549 0.23738,7.223416 0.36085,10.835072 0.22324,4.266897 0.12079,8.534282 -0.0333,12.800499 -0.0926,2.625077 -0.17583,5.250511 -0.21833,7.876912 -0.0577,1.6969 0.065,3.402255 -0.14095,5.090479 -0.18163,1.211979 -0.83447,2.225252 -1.58555,3.160921 -0.53596,0.597718 -1.24046,1.01171 -1.93696,1.396653 7.60197,-4.290305 4.69181,-2.193105 2.54939,-2.026934 -1.25765,0.03172 -2.40708,-0.408588 -3.51597,-0.953178 -1.1059,-0.588411 -2.05316,-1.410864 -2.9645,-2.259179 -0.27985,-0.282513 -0.53646,-0.492109 -0.69023,-0.882757 -0.78426,-1.992365 0.0782,-4.33539 0.61906,-6.261579 0.95321,-2.497691 2.30755,-4.851925 4.43334,-6.534305 0.46063,-0.364544 1.98146,-1.260158 1.4675,-0.975734 -0.95737,0.529801 -1.86671,1.142102 -2.80006,1.713155 1.60207,-0.748607 3.31152,-0.975924 5.05428,-1.050956 0,0 4.07166,-2.979679 4.07166,-2.979679 v 0 c -1.80082,0.04699 -3.57625,0.230815 -5.26122,0.929382 -1.0066,0.569023 -5.30135,2.703928 -7.06732,4.233429 -2.07101,1.793683 -3.3691,4.218699 -4.29647,6.757953 -0.62428,2.281304 -1.9,5.803804 0.0938,7.755025 0.94805,0.877392 1.92499,1.733586 3.05768,2.369061 1.13845,0.597225 2.31634,1.112067 3.62033,1.178985 2.50841,0.152676 4.30513,-1.553081 6.47323,-2.878841 0.68456,-0.435362 1.35884,-0.896848 1.83212,-1.571915 0.72196,-1.022903 1.30003,-2.127844 1.42884,-3.395413 0.14547,-1.698074 0.0309,-3.405347 0.0701,-5.107754 0.0106,-2.603429 0.0351,-5.206802 0.10549,-7.809416 0.0889,-4.255632 0.10766,-8.510602 -0.10306,-12.763819 -0.1056,-3.6588 -0.21089,-7.324103 0.0198,-10.9807247 0,0 -4.64364,2.3346577 -4.64364,2.3346577 z" />
    <path
       style="fill:#000000;fill-opacity:1;stroke:none;stroke-width:9.19041;stroke-linecap:round;paint-order:stroke fill markers"
       id="path3946"
       d="m 140.46624,34.276813 c 1.8707,-1.196991 -2.45614,1.379634 -3.62228,2.166806 -0.15229,0.102798 0.36155,-0.08793 0.54516,-0.0814 0.77126,0.02734 1.26984,0.465134 1.80729,0.953617 0.98322,1.402458 1.45749,3.164213 1.28952,4.866652 -0.23821,0.870034 -0.7828,1.453131 -1.48964,1.985925 -0.27326,0.205984 -1.15264,0.736891 -0.85421,0.569425 4.92373,-2.76297 4.15061,-2.356569 2.3681,-1.494384 -1.70002,0.713482 -3.5293,1.015825 -5.31137,1.452497 -3.22549,0.747851 -2.74098,0.880677 -6.8768,3.317737 -0.12644,0.271285 -0.15103,0.570137 -0.20344,0.860866 0,0 4.68818,-2.253397 4.68818,-2.253397 v 0 c 0.07,-0.232491 0.12053,-0.42296 0.34022,-0.557193 -6.45331,3.652648 -4.837,2.396967 -2.00273,1.736623 1.80129,-0.484644 3.65616,-0.772764 5.41222,-1.414628 2.71375,-1.195189 1.54769,-0.637585 6.29127,-3.507074 1.11937,-0.677137 1.95839,-1.691934 2.20078,-2.987019 0.0454,-1.851847 -0.46121,-3.711517 -1.50833,-5.250304 -0.20558,-0.206633 -0.39011,-0.436584 -0.61673,-0.619901 -2.38916,-1.932761 -5.34048,0.320631 -7.24404,2.283916 0,0 4.78683,-2.028744 4.78683,-2.028744 z" />
    <path
       style="fill:#000000;fill-opacity:1;stroke:none;stroke-width:9.19041;stroke-linecap:round;paint-order:stroke fill markers"
       id="path3948"
       d="m 140.32391,50.852799 c 3.54066,-0.830423 6.47053,-3.212475 8.8975,-5.79826 1.43389,-1.64333 2.567,-3.483063 3.30129,-5.533383 0.0388,-0.206966 0.12971,-0.410772 0.1162,-0.620895 -0.0835,-1.296276 -1.9059,-1.498538 -2.84267,-1.708577 -1.31679,-0.158167 -2.80678,-0.307842 -4.02874,0.35786 -5.11476,2.786413 -3.90559,1.717743 -6.06024,3.863063 -1.41959,1.569974 -2.08741,3.530734 -2.51997,5.560896 -0.32146,1.680298 0.48937,3.029139 1.56691,4.233405 1.02397,1.052247 2.34132,1.520168 3.75039,1.779086 1.46098,0.203121 2.84871,-0.244016 4.19878,-0.747023 2.4749,-1.034212 4.91652,-2.285479 7.06736,-3.884426 0.63442,-0.506509 1.22617,-1.060958 1.80946,-1.624657 0.70467,-0.684239 1.39689,-1.381078 2.09134,-2.075633 0.11644,-0.116363 0.23283,-0.232728 0.34924,-0.349093 0,0 -4.76772,1.975049 -4.76772,1.975049 v 0 c -0.11585,0.116 -0.23155,0.23199 -0.34732,0.347986 -0.69515,0.694418 -1.39041,1.388946 -2.10299,2.065522 -0.59168,0.549728 -1.19107,1.096466 -1.85761,1.555498 -1.63416,1.022016 -0.44058,0.270264 3.78369,-2.158125 0.1349,-0.07756 -0.26852,0.157454 -0.40541,0.231449 -0.51607,0.27896 -1.05176,0.518945 -1.58963,0.752158 -1.28869,0.52775 -2.61468,1.046468 -4.03413,0.962526 -1.32014,-0.171987 -2.58787,-0.532057 -3.56932,-1.48478 -1.01121,-1.083238 -1.6932,-2.259795 -1.35621,-3.792168 0.44587,-1.958256 1.13595,-3.817407 2.60109,-5.259165 1.71615,-1.463103 1.60288,-1.269792 -2.57986,1.176801 -0.29877,0.174757 0.61029,-0.334877 0.93899,-0.443345 0.56238,-0.185582 1.35362,-0.23087 1.93823,-0.21763 0.31486,0.0072 0.62774,0.05187 0.94162,0.0778 0.90689,0.192802 0.69992,0.128744 1.53492,0.378064 0.79032,0.23598 0.99182,0.342481 0.74228,1.20839 -0.72965,1.980832 -1.87474,3.748629 -3.304,5.303809 -0.70241,0.714809 -1.01741,1.074088 -1.79117,1.708994 -0.27612,0.226564 -1.17911,0.799591 -0.85997,0.639223 6.78073,-3.407193 4.11612,-2.208214 2.55432,-1.587522 0,0 -4.16665,3.107094 -4.16665,3.107094 z" />
  </g>
</svg>
