<?xml version="1.0" encoding="UTF-8" standalone="no"?>
<!-- Created with Inkscape (http://www.inkscape.org/) -->

<svg
   width="210mm"
   height="297mm"
   viewBox="0 0 210 297"
   version="1.1"
   id="svg3125"
   sodipodi:docname="math-sketch.svg"
   inkscape:version="1.1.2 (08b2f3d93c, 2022-04-05)"
   xmlns:inkscape="http://www.inkscape.org/namespaces/inkscape"
   xmlns:sodipodi="http://sodipodi.sourceforge.net/DTD/sodipodi-0.dtd"
   xmlns="http://www.w3.org/2000/svg"
   xmlns:svg="http://www.w3.org/2000/svg">
  <sodipodi:namedview
     id="namedview3127"
     pagecolor="#ffffff"
     bordercolor="#666666"
     borderopacity="1.0"
     inkscape:pageshadow="2"
     inkscape:pageopacity="0.0"
     inkscape:pagecheckerboard="0"
     inkscape:document-units="mm"
     showgrid="false"
     inkscape:zoom="0.60415646"
     inkscape:cx="384.83409"
     inkscape:cy="533.80212"
     inkscape:window-width="1848"
     inkscape:window-height="1016"
     inkscape:window-x="72"
     inkscape:window-y="27"
     inkscape:window-maximized="1"
     inkscape:current-layer="layer1"
     showguides="true"
     inkscape:guide-bbox="true" />
  <defs
     id="defs3122" />
  <g
     inkscape:label="Layer 1"
     inkscape:groupmode="layer"
     id="layer1">
    <path
       style="fill:none;stroke:#000000;stroke-width:3;stroke-linecap:butt;stroke-linejoin:miter;stroke-miterlimit:4;stroke-dasharray:none;stroke-opacity:1"
       d="m 13.027278,52.574851 19.373657,10e-7 H 182.62351 l 14.35174,-10e-7 c 0,0 -0.67299,39.437443 -8.58024,57.406239 -5.83371,13.25689 -18.5725,22.63094 -24.66965,35.76874 -6.7061,14.44996 -16.93934,20.63615 -22.78056,35.45683 -5.52288,14.01298 -8.99687,24.09113 -14.96979,35.43876 -4.96774,9.43795 -13.90807,16.82041 -17.24873,26.94925 -4.97337,15.0792 -3.22808,47.52505 -3.22808,47.52505 0,0 -0.0844,-34.32855 -5.696184,-50.21042 C 94.912924,227.0727 83.344428,219.89934 76.180588,203.75797 70.19669,190.27522 67.067668,179.69962 61.398518,168.17461 55.11051,155.39151 46.175511,148.26594 40.14203,131.09791 35.213455,117.07386 21.325486,107.45955 16.083704,93.549515 11.21205,80.621686 13.027278,52.574851 13.027278,52.574851 Z"
       id="path3219"
       sodipodi:nodetypes="ccccsssaacasassc" />
    <path
       style="fill:#000000;fill-opacity:1;stroke:none;stroke-width:7.5064;stroke-linecap:round;paint-order:stroke fill markers"
       id="path3928"
       d="m 61.655482,43.954039 c 0.987016,-1.3949 0.746734,-2.872711 0.501377,-4.246971 -0.33419,-1.429 -1.053631,-2.758756 -1.826005,-4.059673 -0.333161,-0.5841 -0.795735,-1.107028 -1.307094,-1.611218 0,0 5.044373,-0.238009 5.044373,-0.238009 v 0 c 0.513051,0.525448 0.972646,1.068748 1.281919,1.681486 0.728585,1.335849 1.410306,2.697276 1.742309,4.144092 0.224065,1.438611 0.459925,2.967813 -0.386825,4.443203 0,0 -5.050054,-0.11291 -5.050054,-0.11291 z" />
    <path
       style="fill:#000000;fill-opacity:1;stroke:none;stroke-width:9.19041;stroke-linecap:round;paint-order:stroke fill markers"
       id="path3930"
       d="m 160.35866,50.575937 c -5.26149,-2.604099 -10.11113,-5.903045 -14.8579,-9.333626 -6.45005,-4.655986 -11.61358,-10.785034 -15.2074,-17.876256 -0.61334,-1.210227 -1.11424,-2.474232 -1.67136,-3.711347 -1.584,-4.648274 -0.90755,-2.375127 -2.06394,-6.809055 0,0 -4.07498,2.216812 -4.07498,2.216812 v 0 c 1.29216,4.416419 0.56041,2.145127 2.22404,6.804541 0.58179,1.238146 1.10754,2.504207 1.74536,3.714438 3.71422,7.047379 8.9019,13.282809 15.30085,18.035885 4.62952,3.46773 9.28558,6.802858 14.26817,9.748557 0,0 4.33716,-2.789949 4.33716,-2.789949 z" />
    <path
       style="fill:#000000;fill-opacity:1;stroke:none;stroke-width:9.19041;stroke-linecap:round;paint-order:stroke fill markers"
       id="path3930-7"
       d="m 154.21974,45.983694 c -5.26149,-2.604099 -10.11113,-5.903045 -14.8579,-9.333626 -6.45005,-4.655986 -11.61358,-10.785034 -15.2074,-17.876256 -0.61334,-1.210227 -1.11424,-2.474232 -1.67136,-3.711347 -1.584,-4.648274 -0.90755,-2.375127 -2.06394,-6.809055 0,0 -4.07498,2.216812 -4.07498,2.216812 v 0 c 1.29216,4.416419 0.56041,2.145127 2.22404,6.804541 0.58179,1.238146 1.10754,2.504207 1.74536,3.714438 3.71422,7.047379 8.9019,13.282809 15.30085,18.035885 4.62952,3.46773 9.28558,6.802858 14.26817,9.748557 0,0 4.33716,-2.789949 4.33716,-2.789949 z" />
    <path
       style="fill:#000000;fill-opacity:1;stroke:none;stroke-width:9.19041;stroke-linecap:round;paint-order:stroke fill markers"
       id="path3932"
       d="m 129.0067,53.739863 c 3.50378,-1.831387 7.06766,-3.749219 9.79102,-6.675769 0.40739,-0.437783 0.76507,-0.919325 1.1476,-1.37899 1.37618,-1.787457 1.95363,-3.669588 2.31385,-5.849901 0,0 -4.48852,2.191793 -4.48852,2.191793 v 0 c -0.3823,2.146331 -0.97141,3.839639 -2.3588,5.578309 -1.20145,1.375624 -2.42799,2.606503 -3.9093,3.688709 -0.40925,0.298986 -1.71905,1.070492 -1.26858,0.83821 0.96602,-0.498137 4.93681,-2.778635 2.82325,-1.631355 0,0 -4.05052,3.238994 -4.05052,3.238994 z" />
    <text
       xml:space="preserve"
       style="font-size:26.3969px;line-height:1.25;font-family:sans-serif;stroke-width:2.19974"
       x="99.162506"
       y="72.199715"
       id="text7907"><tspan
         sodipodi:role="line"
         id="tspan7905"
         style="stroke-width:2.19974"
         x="99.162506"
         y="72.199715">А</tspan></text>
    <path
       style="fill:#000000;fill-opacity:1;stroke:none;stroke-width:7;stroke-linecap:round;stroke-opacity:1;paint-order:stroke fill markers"
       id="path1799"
       d="m 141.18068,35.956237 c -0.46832,-1.440122 -0.74113,-2.928615 -0.93172,-4.427675 -0.32838,-2.082207 0.009,-4.092975 0.58462,-6.092657 0.70758,-2.208771 1.8114,-4.256494 3.11814,-6.162972 0.88448,-1.294769 2.02528,-2.359493 3.22503,-3.353451 0,0 -3.58585,1.4514 -3.58585,1.4514 v 0 c -1.17849,1.027579 -2.29808,2.12423 -3.15872,3.441153 -1.2737,1.948169 -2.35057,4.029028 -3.04052,6.259785 -0.57065,2.054442 -0.90231,4.119623 -0.55774,6.251244 0.19334,1.537663 0.4908,3.056228 0.88966,4.554421 0,0 3.4571,-1.921248 3.4571,-1.921248 z" />
    <path
       style="fill:#000000;fill-opacity:1;stroke:#000000;stroke-width:2;stroke-linecap:round;stroke-miterlimit:4;stroke-dasharray:none;stroke-opacity:1;paint-order:stroke fill markers"
       id="path1815"
       d="m 168.79743,34.672477 c -0.82378,-0.380544 -1.45947,-1.021966 -2.12196,-1.621694 -1.43886,-1.201523 -2.91727,-2.351207 -4.33771,-3.57522 -1.67558,-1.513654 -3.32575,-3.055622 -4.97474,-4.59823 -1.22362,-1.183651 -2.5329,-2.258997 -3.91232,-3.254108 -0.98145,-0.7053 -1.94939,-1.447271 -3.04851,-1.960213 -0.84719,-0.333696 -1.74997,-0.448388 -2.65176,-0.506798 -0.53675,-0.04461 -1.07389,0.0035 -1.61079,2.91e-4 -0.20142,-0.0062 -0.40268,-0.01635 -0.60407,-0.02379 0,0 -3.2223,2.325766 -3.2223,2.325766 v 0 c 0.20148,0.0052 0.403,0.01066 0.60402,0.02622 0.54516,0.02461 1.08607,-0.05875 1.63178,-0.0258 0.87431,0.02665 1.75317,0.09575 2.58864,0.375628 1.10569,0.452031 2.06587,1.191917 3.04213,1.868284 1.37906,0.973847 2.68519,2.030222 3.89718,3.208528 1.69042,1.509617 3.36196,3.039203 5.03118,4.57214 1.3865,1.24111 2.82551,2.416279 4.23895,3.625678 0.66959,0.627957 1.31076,1.293665 2.13395,1.726084 0,0 3.31633,-2.162781 3.31633,-2.162781 z" />
    <path
       style="fill:#000000;fill-opacity:1;stroke:none;stroke-width:9.68253;stroke-linecap:round;stroke-opacity:1;paint-order:stroke fill markers"
       id="path2010"
       d="m 40.714428,34.605543 c 1.512474,-1.291179 3.24921,-2.223151 4.970939,-3.136592 1.481441,-0.80903 3.077795,-1.320282 4.660626,-1.836208 0.244035,-0.07319 0.48714,-0.150196 0.732106,-0.219595 0.552352,-0.156479 2.247711,-0.425798 1.681166,-0.352357 -8.104111,1.050522 -3.541473,0.494551 -1.692898,0.43584 2.712882,-0.0158 5.419024,0.184985 8.131867,0.172283 4.976389,-0.207272 9.910152,-1.133268 14.666026,-2.721794 1.509393,-0.694496 3.867139,-1.099292 4.900442,-2.623827 0.100799,-0.513348 0.09909,-0.256005 0.0035,-0.772043 0,0 -5.247665,0.7726 -5.247665,0.7726 v 0 c 0.07616,0.11136 0.05929,0.04335 -0.02196,0.210393 -1.263955,1.276366 -3.162179,1.62858 -4.708939,2.304352 -1.62604,0.521561 -3.251107,0.985637 -4.915776,1.341142 -0.570471,0.121833 -2.297791,0.353909 -1.717197,0.331209 1.129376,-0.04416 2.251564,-0.230686 3.371961,-0.3959 0.458142,-0.06756 -0.922244,0.06844 -1.383364,0.10266 -2.708269,0.0466 -5.408322,-0.143216 -8.115129,-0.184474 -3.65635,0.06385 -7.369161,0.336944 -10.886064,1.490926 -1.578944,0.536946 -3.165418,1.07545 -4.629427,1.929534 -1.749106,0.964474 -3.494025,1.959168 -5.065465,3.243505 0,0 5.265232,-0.09166 5.265232,-0.09166 z" />
    <path
       style="fill:#000000;fill-opacity:1;stroke:none;stroke-width:9.68253;stroke-linecap:round;stroke-opacity:1;paint-order:stroke fill markers"
       id="path2010-3"
       d="m 42.831553,32.370991 c 1.512473,-1.29118 3.24921,-2.223152 4.970939,-3.136592 1.481442,-0.80903 3.077794,-1.320281 4.660624,-1.836208 0.244037,-0.07319 0.487141,-0.150196 0.732108,-0.219595 0.552352,-0.156479 2.247711,-0.425799 1.681165,-0.352358 -8.104109,1.050521 -3.541472,0.494551 -1.692897,0.435841 2.712882,-0.0158 5.419024,0.184986 8.131867,0.172282 4.976389,-0.207273 9.910152,-1.133268 14.666026,-2.721795 1.509393,-0.694495 3.867139,-1.09929 4.900443,-2.623826 0.100799,-0.513348 0.09909,-0.256006 0.0035,-0.772043 0,0 -5.247665,0.772601 -5.247665,0.772601 v 0 c 0.07616,0.11136 0.05929,0.04335 -0.02196,0.210391 -1.263955,1.276368 -3.162179,1.628581 -4.708939,2.304353 -1.62604,0.521561 -3.251107,0.985638 -4.915776,1.341144 -0.570471,0.121832 -2.297791,0.353907 -1.717197,0.331206 1.129376,-0.04416 2.251564,-0.230685 3.37196,-0.3959 0.458142,-0.06755 -0.922243,0.06844 -1.383365,0.10266 -2.708267,0.0466 -5.40832,-0.143215 -8.115127,-0.184473 -3.65635,0.06385 -7.369161,0.336944 -10.886064,1.490927 -1.578943,0.536945 -3.165418,1.07545 -4.629428,1.929533 -1.749105,0.964475 -3.494021,1.959169 -5.065462,3.243507 0,0 5.26523,-0.09166 5.26523,-0.09166 z" />
    <path
       style="fill:#000000;fill-opacity:1;stroke:none;stroke-width:9.68253;stroke-linecap:round;stroke-opacity:1;paint-order:stroke fill markers"
       id="path2010-6"
       d="m 44.236169,29.93336 c 1.512473,-1.29118 3.249209,-2.223152 4.970938,-3.136592 1.48144,-0.809031 3.077794,-1.320283 4.660624,-1.836208 0.244035,-0.07319 0.487141,-0.150196 0.732106,-0.219595 0.552352,-0.156479 2.247712,-0.425799 1.681167,-0.352358 -8.10411,1.050521 -3.541474,0.49455 -1.692898,0.435843 2.712882,-0.0158 5.419023,0.184985 8.131869,0.17228 4.976386,-0.207272 9.91015,-1.133269 14.666024,-2.721795 1.509393,-0.694495 3.867138,-1.09929 4.900442,-2.623826 0.1008,-0.513348 0.09909,-0.256006 0.0035,-0.772043 0,0 -5.247666,0.772599 -5.247666,0.772599 v 0 c 0.07617,0.111361 0.05929,0.04335 -0.02196,0.210394 -1.263956,1.276366 -3.162179,1.628581 -4.708939,2.304351 -1.626041,0.521561 -3.251107,0.985639 -4.915777,1.341143 -0.570471,0.121834 -2.29779,0.353909 -1.717196,0.331209 1.129375,-0.04416 2.251564,-0.230685 3.37196,-0.3959 0.458144,-0.06755 -0.922244,0.06844 -1.383365,0.102659 -2.708267,0.0466 -5.40832,-0.143205 -8.115127,-0.184473 -3.656349,0.06385 -7.369163,0.336944 -10.886064,1.490926 -1.578944,0.536945 -3.165418,1.075451 -4.629428,1.929534 -1.749105,0.964474 -3.494023,1.959168 -5.065463,3.243505 0,0 5.26523,-0.09165 5.26523,-0.09165 z" />
    <path
       style="fill:#000000;fill-opacity:1;stroke:#000000;stroke-width:2;stroke-linecap:round;stroke-miterlimit:4;stroke-dasharray:none;stroke-opacity:1;paint-order:stroke fill markers"
       id="path2760"
       d="m 44.349327,46.114427 c 0.95033,-1.155988 1.803444,-2.386896 2.71819,-3.57092 1.631324,-2.018675 3.863883,-3.471396 6.147411,-4.661029 0.368373,-0.191908 -0.697969,0.450503 -1.046953,0.675754 2.750248,-1.483998 5.635065,-2.677441 8.575523,-3.722376 1.615323,-0.52687 3.220601,-1.074525 4.79316,-1.718572 1.098235,-0.475837 2.19348,-0.958611 3.25298,-1.516186 0.198051,-1.687727 3.096377,-1.272519 4.088845,-2.531327 0.717637,-0.910222 1.195117,-2.718224 1.587502,-3.808997 0.518044,-1.360538 1.000117,-2.734321 1.486911,-4.106217 0,0 -3.412741,1.595802 -3.412741,1.595802 v 0 c -0.480526,1.376384 -0.968529,2.750082 -1.501717,4.107225 -0.40708,1.081937 -0.761027,2.245781 -1.40085,3.221948 -0.739243,1.127844 -3.653041,2.315144 2.204712,-0.93535 -1.059952,0.582935 -2.157923,1.083215 -3.263275,1.574088 -1.579362,0.666115 -3.189669,1.244611 -4.822222,1.767364 -3.008106,1.064361 -5.950831,2.301531 -8.770066,3.80297 -1.715472,0.964271 -3.437425,1.917102 -5.146417,2.892811 -2.31746,1.323105 -4.670776,2.713009 -6.303437,4.87833 -0.928447,1.210495 -1.809256,2.462937 -2.837079,3.592896 0,0 3.649523,-1.538214 3.649523,-1.538214 z" />
    <path
       style="fill:#000000;fill-opacity:1;stroke:none;stroke-width:2;stroke-linecap:round;stroke-miterlimit:4;stroke-dasharray:none;stroke-opacity:1;paint-order:stroke fill markers"
       id="path3031"
       d="m 86.899547,51.083043 c -2.009044,-1.118344 -3.595229,-2.883125 -5.188963,-4.512503 -1.123254,-1.172253 -2.230631,-2.359473 -3.351496,-3.534011 -0.630004,-0.664871 -1.299477,-1.288865 -1.877689,-2.000451 -0.961747,-1.15956 -1.957562,-2.290014 -2.903665,-3.462581 -1.678979,-2.252228 -1.444953,-4.309218 -0.987885,-6.932752 0.501748,-2.518162 1.441267,-4.907232 2.393135,-7.280656 0.694455,-1.644014 1.068517,-3.379966 1.34134,-5.134889 0.03258,-0.196752 0.06517,-0.393504 0.09775,-0.590256 0,0 -3.504203,1.718073 -3.504203,1.718073 v 0 c -0.0282,0.195059 -0.0564,0.390119 -0.08459,0.585178 -0.255402,1.723007 -0.633542,3.419978 -1.322057,5.029279 -0.929465,2.387288 -1.810298,4.799222 -2.297803,7.323292 -0.44187,2.716154 -0.657116,4.919482 1.059233,7.256245 0.924618,1.18568 1.918615,2.314924 2.841725,3.502078 0.5782,0.729702 1.248717,1.371333 1.909136,2.026015 1.154639,1.155851 2.302751,2.31821 3.46188,3.469587 1.642104,1.639197 3.224577,3.386407 5.12732,4.728393 0,0 3.286834,-2.190041 3.286834,-2.190041 z" />
    <path
       style="fill:#000000;fill-opacity:1;stroke:none;stroke-width:2;stroke-linecap:round;stroke-miterlimit:4;stroke-dasharray:none;stroke-opacity:1;paint-order:stroke fill markers"
       id="path3313"
       d="m 47.871462,41.845933 c 0.769451,-1.260536 1.809894,-2.240917 3.096664,-2.948903 -5.328295,2.817723 -2.479845,1.493033 -1.165888,1.056193 0.831027,-0.276286 1.668687,-0.532913 2.504403,-0.794504 1.470142,-0.468106 2.917069,-1.011272 4.324835,-1.642713 1.968953,-0.988505 3.919212,-2.03934 5.668074,-3.382796 0,0 -3.655722,1.455941 -3.655722,1.455941 v 0 c -0.255397,0.190897 -0.387217,0.295058 -0.655256,0.472136 -0.11497,0.07595 -0.470048,0.287634 -0.350221,0.219602 5.559327,-3.156345 3.263596,-1.862588 2.043385,-1.189914 -1.39981,0.668999 -2.853082,1.22164 -4.325903,1.707878 -2.920183,0.91331 -5.391131,1.578665 -8.006384,3.492291 -1.264872,0.807759 -2.277827,1.872138 -3.087629,3.138318 0,0 3.609642,-1.583529 3.609642,-1.583529 z" />
    <path
       style="fill:#000000;fill-opacity:1;stroke:none;stroke-width:2;stroke-linecap:round;stroke-miterlimit:4;stroke-dasharray:none;stroke-opacity:1;paint-order:stroke fill markers"
       id="path3329"
       d="m 97.560665,292.70723 c -5.66401,3.21363 -3.076892,1.65838 -1.699981,1.19547 0.716937,-0.24103 1.447184,-0.40157 2.187278,-0.55013 1.404024,-0.24813 2.833288,-0.27489 4.254218,-0.3353 1.40558,-0.0828 2.81264,0.0158 4.20637,0.19673 1.12487,0.19132 2.26849,0.27669 3.3764,0.55642 0.8918,0.26735 1.5863,0.8852 2.27237,1.48468 0,0 3.32985,-2.07191 3.32985,-2.07191 v 0 c -0.72635,-0.6323 -1.44471,-1.30331 -2.36889,-1.63403 -1.12251,-0.32196 -2.28862,-0.38113 -3.43714,-0.57354 -1.404,-0.20998 -2.82684,-0.32327 -4.24696,-0.25436 -1.43179,0.0614 -2.87073,0.0796 -4.29055,0.29138 -2.759928,0.50407 -4.875926,1.39849 -7.266134,3.1328 0,0 3.683169,-1.43821 3.683169,-1.43821 z" />
    <path
       style="fill:#000000;fill-opacity:1;stroke:none;stroke-width:2;stroke-linecap:round;stroke-miterlimit:4;stroke-dasharray:none;stroke-opacity:1;paint-order:stroke fill markers"
       id="path3454"
       d="m 56.780172,37.602334 c 1.441238,1.092018 2.763861,2.333919 3.97333,3.676261 0.384289,0.40332 0.6193,0.705181 0.361773,1.218242 0,0 3.569316,-1.695378 3.569316,-1.695378 v 0 c 0.09394,-0.654735 -0.119308,-1.089671 -0.615693,-1.538888 -1.264603,-1.308809 -2.598391,-2.547766 -3.965596,-3.748712 0,0 -3.32313,2.088475 -3.32313,2.088475 z" />
  </g>
</svg>
