<?xml version="1.0" encoding="UTF-8" standalone="no"?>
<!-- Created with Inkscape (http://www.inkscape.org/) -->

<svg
   width="210mm"
   height="297mm"
   viewBox="0 0 210 297"
   version="1.1"
   id="svg3125"
   sodipodi:docname="math-sketch.svg"
   inkscape:version="1.1.2 (08b2f3d93c, 2022-04-05)"
   xmlns:inkscape="http://www.inkscape.org/namespaces/inkscape"
   xmlns:sodipodi="http://sodipodi.sourceforge.net/DTD/sodipodi-0.dtd"
   xmlns="http://www.w3.org/2000/svg"
   xmlns:svg="http://www.w3.org/2000/svg">
  <sodipodi:namedview
     id="namedview3127"
     pagecolor="#ffffff"
     bordercolor="#666666"
     borderopacity="1.0"
     inkscape:pageshadow="2"
     inkscape:pageopacity="0.0"
     inkscape:pagecheckerboard="0"
     inkscape:document-units="mm"
     showgrid="false"
     inkscape:zoom="0.60415646"
     inkscape:cx="384.83409"
     inkscape:cy="426.2141"
     inkscape:window-width="1848"
     inkscape:window-height="1016"
     inkscape:window-x="72"
     inkscape:window-y="27"
     inkscape:window-maximized="1"
     inkscape:current-layer="layer1"
     showguides="true"
     inkscape:guide-bbox="true" />
  <defs
     id="defs3122" />
  <g
     inkscape:label="Layer 1"
     inkscape:groupmode="layer"
     id="layer1">
    <path
       style="fill:none;stroke:#000000;stroke-width:3;stroke-linecap:butt;stroke-linejoin:miter;stroke-miterlimit:4;stroke-dasharray:none;stroke-opacity:1"
       d="m 13.027278,52.574851 19.373657,10e-7 H 182.62351 l 14.35174,-10e-7 c 0,0 -0.67299,39.437443 -8.58024,57.406239 -5.83371,13.25689 -18.5725,22.63094 -24.66965,35.76874 -6.7061,14.44996 -16.93934,20.63615 -22.78056,35.45683 -5.52288,14.01298 -8.99687,24.09113 -14.96979,35.43876 -4.96774,9.43795 -13.90807,16.82041 -17.24873,26.94925 -4.97337,15.0792 -3.22808,47.52505 -3.22808,47.52505 0,0 -0.0844,-34.32855 -5.696184,-50.21042 C 94.912924,227.0727 83.344428,219.89934 76.180588,203.75797 70.19669,190.27522 67.067668,179.69962 61.398518,168.17461 55.11051,155.39151 46.175511,148.26594 40.14203,131.09791 35.213455,117.07386 21.325486,107.45955 16.083704,93.549515 11.21205,80.621686 13.027278,52.574851 13.027278,52.574851 Z"
       id="path3219"
       sodipodi:nodetypes="ccccsssaacasassc" />
    <path
       style="fill:#000000;fill-opacity:1;stroke:none;stroke-width:7.5064;stroke-linecap:round;paint-order:stroke fill markers"
       id="path3928"
       d="m 61.655482,43.954039 c 0.987016,-1.3949 0.746734,-2.872711 0.501377,-4.246971 -0.33419,-1.429 -1.053631,-2.758756 -1.826005,-4.059673 -0.333161,-0.5841 -0.795735,-1.107028 -1.307094,-1.611218 0,0 5.044373,-0.238009 5.044373,-0.238009 v 0 c 0.513051,0.525448 0.972646,1.068748 1.281919,1.681486 0.728585,1.335849 1.410306,2.697276 1.742309,4.144092 0.224065,1.438611 0.459925,2.967813 -0.386825,4.443203 0,0 -5.050054,-0.11291 -5.050054,-0.11291 z" />
    <path
       style="fill:#000000;fill-opacity:1;stroke:none;stroke-width:9.19041;stroke-linecap:round;paint-order:stroke fill markers"
       id="path3930"
       d="m 160.35866,50.575937 c -5.26149,-2.604099 -10.11113,-5.903045 -14.8579,-9.333626 -6.45005,-4.655986 -11.61358,-10.785034 -15.2074,-17.876256 -0.61334,-1.210227 -1.11424,-2.474232 -1.67136,-3.711347 -1.584,-4.648274 -0.90755,-2.375127 -2.06394,-6.809055 0,0 -4.07498,2.216812 -4.07498,2.216812 v 0 c 1.29216,4.416419 0.56041,2.145127 2.22404,6.804541 0.58179,1.238146 1.10754,2.504207 1.74536,3.714438 3.71422,7.047379 8.9019,13.282809 15.30085,18.035885 4.62952,3.46773 9.28558,6.802858 14.26817,9.748557 0,0 4.33716,-2.789949 4.33716,-2.789949 z" />
    <path
       style="fill:#000000;fill-opacity:1;stroke:none;stroke-width:9.19041;stroke-linecap:round;paint-order:stroke fill markers"
       id="path3930-7"
       d="m 154.21974,45.983694 c -5.26149,-2.604099 -10.11113,-5.903045 -14.8579,-9.333626 -6.45005,-4.655986 -11.61358,-10.785034 -15.2074,-17.876256 -0.61334,-1.210227 -1.11424,-2.474232 -1.67136,-3.711347 -1.584,-4.648274 -0.90755,-2.375127 -2.06394,-6.809055 0,0 -4.07498,2.216812 -4.07498,2.216812 v 0 c 1.29216,4.416419 0.56041,2.145127 2.22404,6.804541 0.58179,1.238146 1.10754,2.504207 1.74536,3.714438 3.71422,7.047379 8.9019,13.282809 15.30085,18.035885 4.62952,3.46773 9.28558,6.802858 14.26817,9.748557 0,0 4.33716,-2.789949 4.33716,-2.789949 z" />
    <path
       style="fill:#000000;fill-opacity:1;stroke:none;stroke-width:9.19041;stroke-linecap:round;paint-order:stroke fill markers"
       id="path3932"
       d="m 131.13589,54.215567 c 2.87727,-2.711413 5.789,-5.522311 7.61855,-9.076764 0.27368,-0.531711 0.48767,-1.092093 0.7315,-1.638141 0.84098,-2.093231 0.88743,-4.061405 0.64404,-6.257831 0,0 -3.7277,3.324911 -3.7277,3.324911 v 0 c 0.21294,2.169689 0.10416,3.959244 -0.76083,6.008544 -0.78425,1.649477 -1.63183,3.166403 -2.76492,4.609167 -0.31304,0.398599 -1.36512,1.495837 -0.99434,1.150294 0.79513,-0.74102 4.00041,-4.011187 2.27629,-2.334644 0,0 -3.02259,4.214464 -3.02259,4.214464 z" />
    <text
       xml:space="preserve"
       style="font-size:26.3969px;line-height:1.25;font-family:sans-serif;stroke-width:2.19974"
       x="99.162506"
       y="72.199715"
       id="text7907"><tspan
         sodipodi:role="line"
         id="tspan7905"
         style="stroke-width:2.19974"
         x="99.162506"
         y="72.199715">А</tspan></text>
    <path
       style="fill:#000000;fill-opacity:1;stroke:none;stroke-width:7;stroke-linecap:round;stroke-opacity:1;paint-order:stroke fill markers"
       id="path1799"
       d="m 141.18068,35.956237 c -0.46832,-1.440122 -0.74113,-2.928615 -0.93172,-4.427675 -0.32838,-2.082207 0.009,-4.092975 0.58462,-6.092657 0.70758,-2.208771 1.8114,-4.256494 3.11814,-6.162972 0.88448,-1.294769 2.02528,-2.359493 3.22503,-3.353451 0,0 -3.58585,1.4514 -3.58585,1.4514 v 0 c -1.17849,1.027579 -2.29808,2.12423 -3.15872,3.441153 -1.2737,1.948169 -2.35057,4.029028 -3.04052,6.259785 -0.57065,2.054442 -0.90231,4.119623 -0.55774,6.251244 0.19334,1.537663 0.4908,3.056228 0.88966,4.554421 0,0 3.4571,-1.921248 3.4571,-1.921248 z" />
    <path
       style="fill:#000000;fill-opacity:1;stroke:#000000;stroke-width:2;stroke-linecap:round;stroke-miterlimit:4;stroke-dasharray:none;stroke-opacity:1;paint-order:stroke fill markers"
       id="path1815"
       d="m 168.79743,34.672477 c -0.82378,-0.380544 -1.45947,-1.021966 -2.12196,-1.621694 -1.43886,-1.201523 -2.91727,-2.351207 -4.33771,-3.57522 -1.67558,-1.513654 -3.32575,-3.055622 -4.97474,-4.59823 -1.22362,-1.183651 -2.5329,-2.258997 -3.91232,-3.254108 -0.98145,-0.7053 -1.94939,-1.447271 -3.04851,-1.960213 -0.84719,-0.333696 -1.74997,-0.448388 -2.65176,-0.506798 -0.53675,-0.04461 -1.07389,0.0035 -1.61079,2.91e-4 -0.20142,-0.0062 -0.40268,-0.01635 -0.60407,-0.02379 0,0 -3.2223,2.325766 -3.2223,2.325766 v 0 c 0.20148,0.0052 0.403,0.01066 0.60402,0.02622 0.54516,0.02461 1.08607,-0.05875 1.63178,-0.0258 0.87431,0.02665 1.75317,0.09575 2.58864,0.375628 1.10569,0.452031 2.06587,1.191917 3.04213,1.868284 1.37906,0.973847 2.68519,2.030222 3.89718,3.208528 1.69042,1.509617 3.36196,3.039203 5.03118,4.57214 1.3865,1.24111 2.82551,2.416279 4.23895,3.625678 0.66959,0.627957 1.31076,1.293665 2.13395,1.726084 0,0 3.31633,-2.162781 3.31633,-2.162781 z" />
    <path
       style="fill:#000000;fill-opacity:1;stroke:none;stroke-width:9.68253;stroke-linecap:round;stroke-opacity:1;paint-order:stroke fill markers"
       id="path2010"
       d="m 41.019539,33.691317 c 1.463162,-1.346804 3.163853,-2.343032 4.850241,-3.320182 1.45017,-0.863832 3.026301,-1.434387 4.588745,-2.00911 0.241128,-0.08226 0.481185,-0.168296 0.723387,-0.246802 0.546118,-0.177013 2.230227,-0.509506 1.666822,-0.414942 -8.059187,1.352667 -3.520515,0.626562 -1.675426,0.498805 2.710396,-0.117179 5.422152,-0.01767 8.132625,-0.131754 4.965165,-0.393112 9.860874,-1.502854 14.554057,-3.268013 1.482383,-0.750423 3.823353,-1.243053 4.798956,-2.805142 0.08154,-0.516756 0.08945,-0.259529 -0.02536,-0.771633 0,0 -5.215123,0.968183 -5.215123,0.968183 v 0 c 0.08026,0.108435 0.06087,0.04111 -0.01409,0.211066 -1.21537,1.322713 -3.099105,1.745624 -4.619528,2.478731 -1.605411,0.581968 -3.212,1.106455 -4.862219,1.523926 -0.565519,0.143068 -2.282958,0.439538 -1.703619,0.395156 1.126937,-0.08634 2.24137,-0.314675 3.354809,-0.521647 0.455297,-0.08463 -0.919041,0.10286 -1.37856,0.15429 -2.704635,0.147785 -5.409897,0.05901 -8.116354,0.118945 -3.651409,0.200457 -7.35142,0.612121 -10.822738,1.896736 -1.557773,0.595582 -3.123013,1.193001 -4.554079,2.101204 -1.711839,1.029171 -3.418363,2.088383 -4.940705,3.430553 0,0 5.258128,-0.288376 5.258128,-0.288376 z" />
    <path
       style="fill:#000000;fill-opacity:1;stroke:none;stroke-width:9.68253;stroke-linecap:round;stroke-opacity:1;paint-order:stroke fill markers"
       id="path2010-3"
       d="m 43.051672,31.379202 c 1.463161,-1.346804 3.163853,-2.343033 4.850241,-3.320182 1.45017,-0.863832 3.0263,-1.434387 4.588742,-2.009109 0.241131,-0.08226 0.481187,-0.168298 0.723389,-0.246803 0.546118,-0.177013 2.230228,-0.509507 1.666822,-0.414943 -8.059186,1.352666 -3.520515,0.626562 -1.675425,0.498806 2.710396,-0.117179 5.422152,-0.01767 8.132624,-0.131756 4.965166,-0.393112 9.860874,-1.502853 14.554057,-3.268014 1.482383,-0.750422 3.823354,-1.24305 4.798958,-2.80514 0.08154,-0.516756 0.08946,-0.259529 -0.02536,-0.771635 0,0 -5.215125,0.968186 -5.215125,0.968186 v 0 c 0.08026,0.108435 0.06087,0.04111 -0.01409,0.211064 -1.215369,1.322714 -3.099104,1.745625 -4.619527,2.478732 -1.605412,0.581968 -3.212,1.106455 -4.862219,1.523928 -0.565519,0.143067 -2.282959,0.439536 -1.703618,0.395152 1.126935,-0.08634 2.241369,-0.314673 3.354807,-0.521646 0.455298,-0.08462 -0.91904,0.10286 -1.378561,0.15429 -2.704634,0.147785 -5.409895,0.05901 -8.116352,0.118946 -3.651409,0.200457 -7.351421,0.612121 -10.822738,1.896737 -1.557772,0.59558 -3.123013,1.193001 -4.55408,2.101203 -1.711838,1.029171 -3.418359,2.088384 -4.940702,3.430555 0,0 5.258126,-0.288376 5.258126,-0.288376 z" />
    <path
       style="fill:#000000;fill-opacity:1;stroke:none;stroke-width:9.68253;stroke-linecap:round;stroke-opacity:1;paint-order:stroke fill markers"
       id="path2010-6"
       d="m 44.364204,28.890778 c 1.46316,-1.346804 3.163852,-2.343033 4.85024,-3.320182 1.450168,-0.863832 3.0263,-1.434388 4.588741,-2.009108 0.24113,-0.08226 0.481188,-0.168298 0.723388,-0.246804 0.546118,-0.177013 2.230228,-0.509506 1.666824,-0.414943 -8.059187,1.352666 -3.520517,0.626563 -1.675426,0.498808 2.710396,-0.117179 5.42215,-0.01767 8.132626,-0.131757 4.965163,-0.393112 9.860872,-1.502854 14.554055,-3.268014 1.482382,-0.750422 3.823352,-1.243051 4.798957,-2.80514 0.08154,-0.516757 0.08946,-0.25953 -0.02536,-0.771634 0,0 -5.215125,0.968182 -5.215125,0.968182 v 0 c 0.08028,0.108438 0.06087,0.04111 -0.01409,0.211067 -1.215369,1.322714 -3.099103,1.745625 -4.619526,2.478732 -1.605413,0.581967 -3.212,1.106455 -4.86222,1.523925 -0.565519,0.143069 -2.282957,0.439538 -1.703618,0.395156 1.126936,-0.08634 2.241369,-0.314673 3.354808,-0.521646 0.4553,-0.08462 -0.919042,0.10286 -1.378561,0.154288 -2.704634,0.147785 -5.409895,0.05902 -8.116352,0.118948 -3.651409,0.200455 -7.351422,0.612119 -10.822738,1.896734 -1.557773,0.595581 -3.123013,1.193003 -4.55408,2.101204 -1.711838,1.029171 -3.418361,2.088384 -4.940703,3.430553 0,0 5.258126,-0.288366 5.258126,-0.288366 z" />
    <path
       style="fill:#000000;fill-opacity:1;stroke:#000000;stroke-width:2;stroke-linecap:round;stroke-miterlimit:4;stroke-dasharray:none;stroke-opacity:1;paint-order:stroke fill markers"
       id="path2760"
       d="m 49.044406,127.23322 c 1.269543,-0.79228 2.470867,-1.68658 3.715625,-2.51678 2.190243,-1.39254 4.769664,-2.05685 7.313425,-2.45555 0.410361,-0.0643 -0.80524,0.20421 -1.207855,0.30631 3.080022,-0.52873 6.194862,-0.73917 9.315026,-0.79111 1.699007,0.0162 3.395113,0.009 5.090978,-0.0991 1.192664,-0.10054 2.384701,-0.20855 3.566742,-0.39882 0.726284,-1.53627 3.340568,-0.21785 4.682858,-1.09413 0.97059,-0.63361 2.000077,-2.1947 2.72003,-3.10322 0.925131,-1.12409 1.820408,-2.27219 2.719549,-3.41702 0,0 -3.743555,0.42328 -3.743555,0.42328 v 0 c -0.894641,1.15108 -1.795499,2.29721 -2.733907,3.41325 -0.731064,0.89545 -1.437908,1.8855 -2.355798,2.60643 -1.060506,0.83297 -4.200847,1.02833 2.387933,-0.18289 -1.190568,0.21421 -2.390779,0.33794 -3.594978,0.4504 -1.709357,0.12725 -3.420076,0.16164 -5.134091,0.13608 -3.190487,0.0487 -6.374154,0.28211 -9.525127,0.80541 -1.933492,0.36641 -3.869478,0.71991 -5.800481,1.09922 -2.618519,0.51437 -5.292346,1.08062 -7.530642,2.6117 -1.266199,0.85091 -2.500635,1.75679 -3.835314,2.49966 0,0 3.949583,-0.2931 3.949583,-0.2931 z" />
    <path
       style="fill:#000000;fill-opacity:1;stroke:#000000;stroke-width:2;stroke-linecap:round;stroke-miterlimit:4;stroke-dasharray:none;stroke-opacity:1;paint-order:stroke fill markers"
       id="path2760-3"
       d="m 144.27899,143.63947 c -0.95033,-1.15599 -1.80345,-2.3869 -2.71819,-3.57092 -1.63133,-2.01869 -3.86389,-3.47141 -6.14741,-4.66104 -0.36838,-0.19191 0.69797,0.4505 1.04695,0.67575 -2.75025,-1.48399 -5.63507,-2.67744 -8.57552,-3.72237 -1.61533,-0.52687 -3.2206,-1.07453 -4.79316,-1.71857 -1.09824,-0.47584 -2.19348,-0.95861 -3.25298,-1.51619 -0.19805,-1.68773 -3.09638,-1.27252 -4.08885,-2.53133 -0.71764,-0.91022 -1.19512,-2.71822 -1.5875,-3.80899 -0.51804,-1.36054 -1.00012,-2.73432 -1.48691,-4.10622 0,0 3.41274,1.5958 3.41274,1.5958 v 0 c 0.48053,1.37639 0.96853,2.75008 1.50172,4.10723 0.40708,1.08193 0.76102,2.24578 1.40085,3.22194 0.73924,1.12785 3.65304,2.31515 -2.20472,-0.93535 1.05996,0.58294 2.15793,1.08322 3.26328,1.57409 1.57936,0.66612 3.18967,1.24461 4.82222,1.76737 3.00811,1.06436 5.95083,2.30153 8.77007,3.80297 1.71547,0.96427 3.43742,1.9171 5.14641,2.89281 2.31746,1.3231 4.67078,2.71302 6.30344,4.87834 0.92845,1.21049 1.80926,2.46293 2.83709,3.59289 0,0 -3.64953,-1.53821 -3.64953,-1.53821 z" />
    <path
       style="fill:#000000;fill-opacity:1;stroke:none;stroke-width:2;stroke-linecap:round;stroke-miterlimit:4;stroke-dasharray:none;stroke-opacity:1;paint-order:stroke fill markers"
       id="path3031"
       d="m 86.899547,51.083043 c -2.009044,-1.118344 -3.595229,-2.883125 -5.188963,-4.512503 -1.123254,-1.172253 -2.230631,-2.359473 -3.351496,-3.534011 -0.630004,-0.664871 -1.299477,-1.288865 -1.877689,-2.000451 -0.961747,-1.15956 -1.957562,-2.290014 -2.903665,-3.462581 -1.678979,-2.252228 -1.444953,-4.309218 -0.987885,-6.932752 0.501748,-2.518162 1.441267,-4.907232 2.393135,-7.280656 0.694455,-1.644014 1.068517,-3.379966 1.34134,-5.134889 0.03258,-0.196752 0.06517,-0.393504 0.09775,-0.590256 0,0 -3.504203,1.718073 -3.504203,1.718073 v 0 c -0.0282,0.195059 -0.0564,0.390119 -0.08459,0.585178 -0.255402,1.723007 -0.633542,3.419978 -1.322057,5.029279 -0.929465,2.387288 -1.810298,4.799222 -2.297803,7.323292 -0.44187,2.716154 -0.657116,4.919482 1.059233,7.256245 0.924618,1.18568 1.918615,2.314924 2.841725,3.502078 0.5782,0.729702 1.248717,1.371333 1.909136,2.026015 1.154639,1.155851 2.302751,2.31821 3.46188,3.469587 1.642104,1.639197 3.224577,3.386407 5.12732,4.728393 0,0 3.286834,-2.190041 3.286834,-2.190041 z" />
    <path
       style="fill:#000000;fill-opacity:1;stroke:none;stroke-width:2;stroke-linecap:round;stroke-miterlimit:4;stroke-dasharray:none;stroke-opacity:1;paint-order:stroke fill markers"
       id="path3313"
       d="m 47.871462,41.845933 c 0.769451,-1.260536 1.809894,-2.240917 3.096664,-2.948903 -5.328295,2.817723 -2.479845,1.493033 -1.165888,1.056193 0.831027,-0.276286 1.668687,-0.532913 2.504403,-0.794504 1.470142,-0.468106 2.917069,-1.011272 4.324835,-1.642713 1.968953,-0.988505 3.919212,-2.03934 5.668074,-3.382796 0,0 -3.655722,1.455941 -3.655722,1.455941 v 0 c -0.255397,0.190897 -0.387217,0.295058 -0.655256,0.472136 -0.11497,0.07595 -0.470048,0.287634 -0.350221,0.219602 5.559327,-3.156345 3.263596,-1.862588 2.043385,-1.189914 -1.39981,0.668999 -2.853082,1.22164 -4.325903,1.707878 -2.920183,0.91331 -5.391131,1.578665 -8.006384,3.492291 -1.264872,0.807759 -2.277827,1.872138 -3.087629,3.138318 0,0 3.609642,-1.583529 3.609642,-1.583529 z" />
    <path
       style="fill:#000000;fill-opacity:1;stroke:none;stroke-width:2;stroke-linecap:round;stroke-miterlimit:4;stroke-dasharray:none;stroke-opacity:1;paint-order:stroke fill markers"
       id="path3329"
       d="m 97.560665,292.70723 c -5.66401,3.21363 -3.076892,1.65838 -1.699981,1.19547 0.716937,-0.24103 1.447184,-0.40157 2.187278,-0.55013 1.404024,-0.24813 2.833288,-0.27489 4.254218,-0.3353 1.40558,-0.0828 2.81264,0.0158 4.20637,0.19673 1.12487,0.19132 2.26849,0.27669 3.3764,0.55642 0.8918,0.26735 1.5863,0.8852 2.27237,1.48468 0,0 3.32985,-2.07191 3.32985,-2.07191 v 0 c -0.72635,-0.6323 -1.44471,-1.30331 -2.36889,-1.63403 -1.12251,-0.32196 -2.28862,-0.38113 -3.43714,-0.57354 -1.404,-0.20998 -2.82684,-0.32327 -4.24696,-0.25436 -1.43179,0.0614 -2.87073,0.0796 -4.29055,0.29138 -2.759928,0.50407 -4.875926,1.39849 -7.266134,3.1328 0,0 3.683169,-1.43821 3.683169,-1.43821 z" />
    <path
       style="fill:#000000;fill-opacity:1;stroke:none;stroke-width:2;stroke-linecap:round;stroke-miterlimit:4;stroke-dasharray:none;stroke-opacity:1;paint-order:stroke fill markers"
       id="path3454"
       d="m 56.780172,37.602334 c 1.441238,1.092018 2.763861,2.333919 3.97333,3.676261 0.384289,0.40332 0.6193,0.705181 0.361773,1.218242 0,0 3.569316,-1.695378 3.569316,-1.695378 v 0 c 0.09394,-0.654735 -0.119308,-1.089671 -0.615693,-1.538888 -1.264603,-1.308809 -2.598391,-2.547766 -3.965596,-3.748712 0,0 -3.32313,2.088475 -3.32313,2.088475 z" />
  </g>
</svg>
