<?xml version="1.0" encoding="UTF-8" standalone="no"?>
<!-- Created with Inkscape (http://www.inkscape.org/) -->

<svg
   width="450"
   height="250"
   viewBox="0 0 450 250.00001"
   version="1.1"
   id="svg57395"
   sodipodi:docname="tree-sketch.svg"
   inkscape:version="1.1.2 (08b2f3d93c, 2022-04-05)"
   xmlns:inkscape="http://www.inkscape.org/namespaces/inkscape"
   xmlns:sodipodi="http://sodipodi.sourceforge.net/DTD/sodipodi-0.dtd"
   xmlns="http://www.w3.org/2000/svg"
   xmlns:svg="http://www.w3.org/2000/svg">
  <sodipodi:namedview
     id="namedview57397"
     pagecolor="#ffffff"
     bordercolor="#666666"
     borderopacity="1.0"
     inkscape:pageshadow="2"
     inkscape:pageopacity="0.0"
     inkscape:pagecheckerboard="0"
     inkscape:document-units="px"
     showgrid="false"
     units="px"
     width="450px"
     inkscape:zoom="1.4486971"
     inkscape:cx="303.37604"
     inkscape:cy="204.66666"
     inkscape:window-width="1848"
     inkscape:window-height="1016"
     inkscape:window-x="72"
     inkscape:window-y="27"
     inkscape:window-maximized="1"
     inkscape:current-layer="layer1" />
  <defs
     id="defs57392" />
  <g
     inkscape:label="Layer 1"
     inkscape:groupmode="layer"
     id="layer1">
    <path
       id="path846"
       style="stroke-width:39.0104;stroke-linecap:round;paint-order:stroke fill markers"
       d="M 104.78334,208.15179 A 33.340176,33.340176 0 0 1 71.443169,241.49197 33.340176,33.340176 0 0 1 38.102993,208.15179 33.340176,33.340176 0 0 1 71.443169,174.81162 33.340176,33.340176 0 0 1 104.78334,208.15179 Z" />
    <path
       id="path846-6"
       style="stroke-width:39.0104;stroke-linecap:round;paint-order:stroke fill markers"
       d="m 274.81993,124.95272 a 33.340176,33.340176 0 0 1 -33.34018,33.34018 33.340176,33.340176 0 0 1 -33.34017,-33.34018 33.340176,33.340176 0 0 1 33.34017,-33.340175 33.340176,33.340176 0 0 1 33.34018,33.340175 z" />
    <path
       id="path846-6-2"
       style="stroke-width:39.0104;stroke-linecap:round;paint-order:stroke fill markers"
       d="M 259.64938,207.5779 A 33.340176,33.340176 0 0 1 226.3092,240.91807 33.340176,33.340176 0 0 1 192.96903,207.5779 33.340176,33.340176 0 0 1 226.3092,174.23772 33.340176,33.340176 0 0 1 259.64938,207.5779 Z" />
    <path
       id="path846-6-2-9"
       style="stroke-width:39.0104;stroke-linecap:round;paint-order:stroke fill markers"
       d="m 398.85785,207.49861 a 33.340176,33.340176 0 0 1 -33.34018,33.34018 33.340176,33.340176 0 0 1 -33.34018,-33.34018 33.340176,33.340176 0 0 1 33.34018,-33.34017 33.340176,33.340176 0 0 1 33.34018,33.34017 z" />
    <path
       id="path846-6-2-9-1"
       style="stroke-width:39.0104;stroke-linecap:round;paint-order:stroke fill markers"
       d="m 202.46144,161.69574 a 33.340176,33.340176 0 0 1 -33.34018,33.34018 33.340176,33.340176 0 0 1 -33.34017,-33.34018 33.340176,33.340176 0 0 1 33.34017,-33.34018 33.340176,33.340176 0 0 1 33.34018,33.34018 z" />
    <path
       style="fill:none;stroke:#000000;stroke-width:7.80212;stroke-linecap:butt;stroke-linejoin:miter;stroke-miterlimit:4;stroke-dasharray:none;stroke-opacity:1"
       d="M 238.88082,127.82606 218.23779,45.253844"
       id="path3570" />
    <path
       style="fill:none;stroke:#000000;stroke-width:7.80212;stroke-linecap:butt;stroke-linejoin:miter;stroke-miterlimit:4;stroke-dasharray:none;stroke-opacity:1"
       d="m 238.88082,122.66528 82.57223,10.32155"
       id="path3685" />
    <path
       style="fill:none;stroke:#000000;stroke-width:7.80212;stroke-linecap:butt;stroke-linejoin:miter;stroke-miterlimit:4;stroke-dasharray:none;stroke-opacity:1"
       d="m 326.61382,132.98683 36.12532,77.41145"
       id="path4696" />
    <path
       style="fill:none;stroke:#000000;stroke-width:7.80212;stroke-linecap:butt;stroke-linejoin:miter;stroke-miterlimit:4;stroke-dasharray:none;stroke-opacity:1"
       d="m 223.39853,210.39824 98.05452,-77.41141"
       id="path5214" />
    <path
       id="path846-3-6"
       style="fill:#ff0000;stroke-width:39.4197;stroke-linecap:round;paint-order:stroke fill markers"
       d="m 357.63291,130.35365 a 33.689732,33.689732 0 0 1 -33.68973,33.68973 33.689732,33.689732 0 0 1 -33.68974,-33.68973 33.689732,33.689732 0 0 1 33.68974,-33.689729 33.689732,33.689732 0 0 1 33.68973,33.689729 z" />
    <path
       style="fill:none;stroke:#000000;stroke-width:7.80212;stroke-linecap:butt;stroke-linejoin:miter;stroke-miterlimit:4;stroke-dasharray:none;stroke-opacity:1"
       d="m 363.09582,203.84979 46.44686,-67.08995"
       id="path5329" />
    <path
       id="path846-3-6-7-5"
       style="fill:#ff0000;stroke-width:39.4197;stroke-linecap:round;paint-order:stroke fill markers"
       d="m 442.29651,136.44739 a 33.689732,33.689732 0 0 1 -33.68973,33.68973 33.689732,33.689732 0 0 1 -33.68973,-33.68973 33.689732,33.689732 0 0 1 33.68973,-33.68973 33.689732,33.689732 0 0 1 33.68973,33.68973 z" />
    <path
       style="fill:none;stroke:#000000;stroke-width:7.80212;stroke-linecap:butt;stroke-linejoin:miter;stroke-miterlimit:4;stroke-dasharray:none;stroke-opacity:1"
       d="M 218.23779,40.093082 68.575632,210.39828"
       id="path5444" />
    <path
       style="fill:none;stroke:#000000;stroke-width:7.80212;stroke-linecap:butt;stroke-linejoin:miter;stroke-miterlimit:4;stroke-dasharray:none;stroke-opacity:1"
       d="M 223.39853,45.253844 166.63015,163.95141"
       id="path5559" />
    <path
       id="path846-3-6-7-5-3-5"
       style="fill:#ff0000;stroke-width:39.4197;stroke-linecap:round;paint-order:stroke fill markers"
       d="M 254.62833,42.51376 A 33.689732,33.689732 0 0 1 220.9386,76.203491 33.689732,33.689732 0 0 1 187.24887,42.51376 33.689732,33.689732 0 0 1 220.9386,8.824028 33.689732,33.689732 0 0 1 254.62833,42.51376 Z" />
    <path
       style="fill:none;stroke:#000000;stroke-width:7.80212;stroke-linecap:butt;stroke-linejoin:miter;stroke-miterlimit:4;stroke-dasharray:none;stroke-opacity:1"
       d="M 130.5048,71.057637 73.736389,210.39824 42.771806,138.14757"
       id="path8085" />
    <path
       id="path846-3-6-7-5-3"
       style="fill:#ff0000;stroke-width:39.4197;stroke-linecap:round;paint-order:stroke fill markers"
       d="M 161.62663,68.247032 A 33.689732,33.689732 0 0 1 127.9369,101.93676 33.689732,33.689732 0 0 1 94.247166,68.247032 33.689732,33.689732 0 0 1 127.9369,34.557301 33.689732,33.689732 0 0 1 161.62663,68.247032 Z" />
    <path
       id="path846-3-6-7"
       style="fill:#ff0000;stroke-width:39.4197;stroke-linecap:round;paint-order:stroke fill markers"
       d="M 75.045933,129.24168 A 33.689732,33.689732 0 0 1 41.356201,162.93142 33.689732,33.689732 0 0 1 7.6664696,129.24168 33.689732,33.689732 0 0 1 41.356201,95.551952 33.689732,33.689732 0 0 1 75.045933,129.24168 Z" />
    <path
       style="fill:none;stroke:#000000;stroke-width:7.80212;stroke-linecap:butt;stroke-linejoin:bevel;stroke-miterlimit:4;stroke-dasharray:none;stroke-opacity:1"
       d="m 47.531128,176.62414 5.920216,-12.72626 13.828518,4.80458"
       id="path9844-2-06" />
    <path
       style="fill:none;stroke:#000000;stroke-width:7.80212;stroke-linecap:butt;stroke-linejoin:bevel;stroke-miterlimit:4;stroke-dasharray:none;stroke-opacity:1"
       d="m 218.85033,90.410547 7.65223,-11.76654 13.01479,6.70282"
       id="path9844" />
    <path
       style="fill:none;stroke:#000000;stroke-width:7.80212;stroke-linecap:butt;stroke-linejoin:bevel;stroke-miterlimit:4;stroke-dasharray:none;stroke-opacity:1"
       d="m 278.80705,117.08962 8.79582,10.93801 -10.42489,10.27782"
       id="path9844-2" />
    <path
       style="fill:none;stroke:#000000;stroke-width:7.80212;stroke-linecap:butt;stroke-linejoin:bevel;stroke-miterlimit:4;stroke-dasharray:none;stroke-opacity:1"
       d="m 268.19385,188.34237 -13.86639,-2.17464 0.79791,-14.61762"
       id="path9844-2-7" />
    <path
       style="fill:none;stroke:#000000;stroke-width:7.80212;stroke-linecap:butt;stroke-linejoin:bevel;stroke-miterlimit:4;stroke-dasharray:none;stroke-opacity:1"
       d="m 352.27208,163.75788 -5.04721,13.09703 -14.12145,-3.85985"
       id="path9844-2-0" />
    <path
       style="fill:none;stroke:#000000;stroke-width:7.80212;stroke-linecap:butt;stroke-linejoin:bevel;stroke-miterlimit:4;stroke-dasharray:none;stroke-opacity:1"
       d="m 374.87668,168.97047 13.89478,-1.98514 3.52153,14.20962"
       id="path9844-2-9" />
    <path
       style="fill:none;stroke:#000000;stroke-width:7.80212;stroke-linecap:butt;stroke-linejoin:bevel;stroke-miterlimit:4;stroke-dasharray:none;stroke-opacity:1"
       d="m 196.81096,124.58663 -13.24461,4.6461 -6.21437,-13.25494"
       id="path9844-2-3" />
    <path
       style="fill:none;stroke:#000000;stroke-width:7.80212;stroke-linecap:butt;stroke-linejoin:bevel;stroke-miterlimit:4;stroke-dasharray:none;stroke-opacity:1"
       d="m 104.13316,109.12875 12.69436,-5.98825 7.54923,12.54271"
       id="path9844-2-6" />
    <g
       aria-label="13"
       id="text16804"
       style="font-size:34.1157px;line-height:1.25;fill:#ffffff;stroke-width:2.84298">
      <path
         d="m 224.0344,133.78401 h 5.49716 v -18.97353 l -5.98024,1.19938 v -3.06508 l 5.94692,-1.19938 h 3.36493 v 22.03861 h 5.49716 v 2.83187 H 224.0344 Z"
         id="path57659" />
      <path
         d="m 255.35155,123.20614 q 2.41541,0.5164 3.76472,2.14889 1.36596,1.63249 1.36596,4.03125 0,3.68143 -2.53203,5.69705 -2.53202,2.01563 -7.19628,2.01563 -1.56585,0 -3.23166,-0.3165 -1.64915,-0.29985 -3.4149,-0.9162 v -3.24832 q 1.39927,0.81625 3.06508,1.2327 1.66581,0.41645 3.48153,0.41645 3.16504,0 4.81418,-1.24935 1.66581,-1.24936 1.66581,-3.63146 0,-2.19886 -1.5492,-3.43156 -1.53254,-1.24936 -4.28112,-1.24936 h -2.8985 v -2.76523 h 3.03176 q 2.48205,0 3.79804,-0.98283 1.31599,-0.99948 1.31599,-2.86518 0,-1.91568 -1.36596,-2.93182 -1.34931,-1.0328 -3.88133,-1.0328 -1.38262,0 -2.96514,0.29984 -1.58251,0.29985 -3.48153,0.93286 v -2.99846 q 1.91568,-0.53305 3.58148,-0.79958 1.68247,-0.26653 3.16503,-0.26653 3.83136,0 6.06354,1.7491 2.23218,1.73243 2.23218,4.69757 0,2.0656 -1.18273,3.49819 -1.18272,1.41593 -3.36492,1.96565 z"
         id="path57661" />
    </g>
    <g
       aria-label="17"
       id="text16804-2"
       style="font-size:34.1157px;line-height:1.25;fill:#ffffff;stroke-width:2.84298">
      <path
         d="m 151.51435,171.67263 h 5.49716 v -18.97352 l -5.98024,1.19938 v -3.06509 l 5.94692,-1.19938 h 3.36493 v 22.03861 h 5.49716 v 2.83187 h -14.32593 z"
         id="path57664" />
      <path
         d="m 171.7872,149.63402 h 15.99174 v 1.4326 l -9.02867,23.43788 h -3.51485 l 8.49561,-22.03861 H 171.7872 Z"
         id="path57666" />
    </g>
    <g
       aria-label="8"
       id="text16804-2-1"
       style="font-size:34.1157px;line-height:1.25;fill:#ffffff;stroke-width:2.84298">
      <path
         d="m 226.80413,209.59982 q -2.39876,0 -3.78138,1.28267 -1.36596,1.28267 -1.36596,3.53151 0,2.24884 1.36596,3.53151 1.38262,1.28267 3.78138,1.28267 2.39876,0 3.78138,-1.28267 1.38261,-1.29933 1.38261,-3.53151 0,-2.24884 -1.38261,-3.53151 -1.36596,-1.28267 -3.78138,-1.28267 z m -3.36493,-1.43259 q -2.16555,-0.53306 -3.38159,-2.01562 -1.19938,-1.48257 -1.19938,-3.6148 0,-2.9818 2.11558,-4.71423 2.13223,-1.73244 5.83032,-1.73244 3.71474,0 5.83032,1.73244 2.11557,1.73243 2.11557,4.71423 0,2.13223 -1.21604,3.6148 -1.19938,1.48256 -3.34827,2.01562 2.43208,0.56637 3.78138,2.21552 1.36596,1.64915 1.36596,4.03125 0,3.6148 -2.21552,5.54713 -2.19886,1.93234 -6.3134,1.93234 -4.11454,0 -6.33006,-1.93234 -2.19887,-1.93233 -2.19887,-5.54713 0,-2.3821 1.36596,-4.03125 1.36596,-1.64915 3.79804,-2.21552 z m -1.2327,-5.31392 q 0,1.93233 1.19938,3.01511 1.21604,1.08277 3.39825,1.08277 2.16554,0 3.38158,-1.08277 1.2327,-1.08278 1.2327,-3.01511 0,-1.93233 -1.2327,-3.01511 -1.21604,-1.08277 -3.38158,-1.08277 -2.18221,0 -3.39825,1.08277 -1.19938,1.08278 -1.19938,3.01511 z"
         id="path57669" />
    </g>
    <g
       aria-label="22"
       id="text16804-2-1-23"
       style="font-size:34.1157px;line-height:1.25;fill:#ffffff;stroke-width:2.84298">
      <path
         d="m 351.65135,216.90769 h 11.74393 v 2.83187 h -15.79184 v -2.83187 q 1.91568,-1.98231 5.21398,-5.31392 3.31495,-3.34827 4.16451,-4.31443 1.61583,-1.81573 2.24884,-3.06509 0.64966,-1.26601 0.64966,-2.48205 0,-1.9823 -1.39927,-3.23166 -1.38262,-1.24935 -3.6148,-1.24935 -1.58252,0 -3.34827,0.54971 -1.7491,0.54972 -3.74806,1.66581 v -3.39825 q 2.03228,-0.81624 3.79803,-1.23269 1.76576,-0.41645 3.23167,-0.41645 3.86466,0 6.16348,1.93233 2.29881,1.93234 2.29881,5.164 0,1.53254 -0.58303,2.91516 -0.56638,1.36596 -2.08226,3.23166 -0.41645,0.48309 -2.64863,2.79856 -2.23218,2.29881 -6.29675,6.44666 z"
         id="path57672" />
      <path
         d="m 373.3568,216.90769 h 11.74393 v 2.83187 h -15.79184 v -2.83187 q 1.91568,-1.98231 5.21397,-5.31392 3.31496,-3.34827 4.16452,-4.31443 1.61583,-1.81573 2.24884,-3.06509 0.64966,-1.26601 0.64966,-2.48205 0,-1.9823 -1.39928,-3.23166 -1.38261,-1.24935 -3.61479,-1.24935 -1.58252,0 -3.34827,0.54971 -1.7491,0.54972 -3.74807,1.66581 v -3.39825 q 2.03229,-0.81624 3.79804,-1.23269 1.76575,-0.41645 3.23166,-0.41645 3.86467,0 6.16348,1.93233 2.29882,1.93234 2.29882,5.164 0,1.53254 -0.58304,2.91516 -0.56637,1.36596 -2.08225,3.23166 -0.41645,0.48309 -2.64863,2.79856 -2.23218,2.29881 -6.29675,6.44666 z"
         id="path57674" />
    </g>
    <g
       aria-label="27"
       id="text16804-2-1-23-5"
       style="font-size:34.1157px;line-height:1.25;fill:#ffffff;stroke-width:2.84298">
      <path
         d="m 308.63063,141.43983 h 11.74393 v 2.83187 h -15.79184 v -2.83187 q 1.91568,-1.98231 5.21398,-5.31392 3.31495,-3.34827 4.16451,-4.31444 1.61583,-1.81573 2.24884,-3.06508 0.64966,-1.26601 0.64966,-2.48205 0,-1.98231 -1.39928,-3.23166 -1.38261,-1.24936 -3.61479,-1.24936 -1.58252,0 -3.34827,0.54972 -1.7491,0.54971 -3.74807,1.6658 v -3.39824 q 2.03229,-0.81625 3.79804,-1.2327 1.76575,-0.41645 3.23166,-0.41645 3.86467,0 6.16348,1.93234 2.29882,1.93233 2.29882,5.16399 0,1.53255 -0.58304,2.91516 -0.56637,1.36596 -2.08225,3.23167 -0.41645,0.48308 -2.64863,2.79855 -2.23218,2.29881 -6.29675,6.44667 z"
         id="path57677" />
      <path
         d="m 326.58802,119.40122 h 15.99173 v 1.43259 l -9.02867,23.43789 h -3.51485 l 8.49561,-22.03861 h -11.94382 z"
         id="path57679" />
    </g>
    <g
       aria-label="25"
       id="text16804-2-1-23-5-2"
       style="font-size:34.1157px;line-height:1.25;fill:#ffffff;stroke-width:2.84298">
      <path
         d="m 206.79314,53.557043 h 11.74393 v 2.831869 h -15.79184 v -2.831869 q 1.91568,-1.982309 5.21397,-5.31392 3.31495,-3.34827 4.16452,-4.314437 1.61583,-1.815728 2.24883,-3.065082 0.64967,-1.266013 0.64967,-2.482051 0,-1.982309 -1.39928,-3.231663 -1.38262,-1.249354 -3.6148,-1.249354 -1.58251,0 -3.34827,0.549716 -1.74909,0.549716 -3.74806,1.665805 v -3.398243 q 2.03228,-0.816245 3.79804,-1.232696 1.76575,-0.416452 3.23166,-0.416452 3.86467,0 6.16348,1.932335 2.29881,1.932334 2.29881,5.163997 0,1.532542 -0.58303,2.91516 -0.56637,1.365961 -2.08226,3.231663 -0.41645,0.483084 -2.64863,2.798554 -2.23218,2.298812 -6.29674,6.446668 z"
         id="path57682" />
      <path
         d="m 225.6334,31.518434 h 13.20984 v 2.831869 h -10.1281 v 6.096849 q 0.73295,-0.249871 1.46591,-0.366477 0.73295,-0.133265 1.46591,-0.133265 4.16451,0 6.59659,2.282154 2.43207,2.282154 2.43207,6.180139 0,4.014592 -2.4987,6.246771 -2.49871,2.215522 -7.04636,2.215522 -1.56586,0 -3.19835,-0.266529 -1.61583,-0.266529 -3.34827,-0.799587 v -3.381585 q 1.49923,0.816245 3.0984,1.216038 1.59917,0.399793 3.38159,0.399793 2.88184,0 4.5643,-1.515883 1.68247,-1.515883 1.68247,-4.11454 0,-2.598657 -1.68247,-4.11454 -1.68246,-1.515883 -4.5643,-1.515883 -1.34931,0 -2.69861,0.299845 -1.33264,0.299845 -2.73192,0.932851 z"
         id="path57684" />
    </g>
    <g
       aria-label="6"
       id="text16804-2-1-2"
       style="font-size:34.1157px;line-height:1.25;fill:#ffffff;stroke-width:2.84298">
      <path
         d="m 72.212358,207.41803 q -2.265496,0 -3.598141,1.5492 -1.315986,1.5492 -1.315986,4.24781 0,2.68194 1.315986,4.2478 1.332645,1.5492 3.598141,1.5492 2.265495,0 3.581482,-1.5492 1.332644,-1.56586 1.332644,-4.2478 0,-2.69861 -1.332644,-4.24781 -1.315987,-1.5492 -3.581482,-1.5492 z m 6.67988,-10.54455 v 3.06508 q -1.266012,-0.59969 -2.56534,-0.91619 -1.282671,-0.3165 -2.548683,-0.3165 -3.331611,0 -5.097365,2.24884 -1.749096,2.24883 -1.998967,6.79648 0.982825,-1.44925 2.465392,-2.21552 1.482567,-0.78293 3.264979,-0.78293 3.748063,0 5.91361,2.28216 2.182206,2.26549 2.182206,6.18014 0,3.83135 -2.265496,6.14682 -2.265496,2.31547 -6.030216,2.31547 -4.314437,0 -6.596591,-3.2983 -2.282154,-3.31495 -2.282154,-9.59504 0,-5.89695 2.798554,-9.39514 2.798553,-3.51485 7.512783,-3.51485 1.266013,0 2.548683,0.24987 1.299329,0.24987 2.698605,0.74961 z"
         id="path57687" />
    </g>
    <g
       aria-label="9"
       id="text16804-2-1-2-8"
       style="font-size:34.1157px;line-height:1.25;fill:#ffffff;stroke-width:2.84298">
      <path
         d="m 35.684838,142.61483 v -3.06509 q 1.266012,0.59969 2.565341,0.9162 1.299328,0.3165 2.548682,0.3165 3.331612,0 5.080708,-2.23218 1.765754,-2.24884 2.015624,-6.81315 -0.966167,1.4326 -2.448734,2.19887 -1.482567,0.76627 -3.281637,0.76627 -3.731405,0 -5.91361,-2.24884 -2.165548,-2.26549 -2.165548,-6.18014 0,-3.83135 2.265496,-6.14682 2.265496,-2.31547 6.030217,-2.31547 4.314436,0 6.579932,3.31495 2.282154,3.2983 2.282154,9.59504 0,5.8803 -2.798554,9.39515 -2.781895,3.49819 -7.496125,3.49819 -1.266013,0 -2.565341,-0.24987 -1.299328,-0.24987 -2.698605,-0.74961 z m 6.696539,-10.54455 q 2.265495,0 3.581482,-1.5492 1.332644,-1.5492 1.332644,-4.24781 0,-2.68194 -1.332644,-4.23114 -1.315987,-1.56586 -3.581482,-1.56586 -2.265496,0 -3.598141,1.56586 -1.315986,1.5492 -1.315986,4.23114 0,2.69861 1.315986,4.24781 1.332645,1.5492 3.598141,1.5492 z"
         id="path57690" />
    </g>
    <g
       aria-label="5"
       id="text16804-2-1-2-8-7"
       style="font-size:34.1157px;line-height:1.25;fill:#ffffff;stroke-width:2.84298">
      <path
         d="m 122.21179,57.026532 h 13.20984 v 2.83187 h -10.1281 v 6.096849 q 0.73295,-0.249871 1.46591,-0.366478 0.73295,-0.133264 1.46591,-0.133264 4.16451,0 6.59659,2.282154 2.43207,2.282153 2.43207,6.180139 0,4.014591 -2.49871,6.246771 -2.4987,2.215521 -7.04635,2.215521 -1.56586,0 -3.19835,-0.266528 -1.61583,-0.266529 -3.34827,-0.799587 v -3.381586 q 1.49923,0.816245 3.0984,1.216038 1.59917,0.399794 3.38158,0.399794 2.88185,0 4.56431,-1.515883 1.68247,-1.515883 1.68247,-4.11454 0,-2.598657 -1.68247,-4.11454 -1.68246,-1.515883 -4.56431,-1.515883 -1.3493,0 -2.6986,0.299845 -1.33265,0.299845 -2.73192,0.932851 z"
         id="path57693" />
    </g>
    <g
       aria-label="1"
       id="text16804-2-1-7"
       style="font-size:34.1157px;line-height:1.25;fill:#ffffff;stroke-width:2.84298">
      <path
         d="m 402.8682,147.95037 h 5.49716 v -18.97352 l -5.98024,1.19938 v -3.06509 l 5.94692,-1.19938 h 3.36493 v 22.03861 h 5.49716 v 2.83187 H 402.8682 Z"
         id="path57696" />
    </g>
  </g>
</svg>
